<svg width="34.146mm" height="32.764mm" version="1.1" viewBox="0 0 34.146 32.764" xmlns="http://www.w3.org/2000/svg" xmlns:xlink="http://www.w3.org/1999/xlink">
	<defs>
		<linearGradient id="linearGradient3295" x1="246.29" x2="344.29" y1="309.29" y2="61.96" gradientTransform="matrix(1 0 0 -1 -95.525 413.64)" gradientUnits="userSpaceOnUse">
			<stop stop-color="#fff" offset="0"/>
			<stop stop-color="#fff" stop-opacity=".8868" offset=".147"/>
			<stop stop-color="#fff" stop-opacity=".23" offset="1"/>
		</linearGradient>
		<linearGradient id="linearGradient3297" x1="425.28" x2="523.28" y1="380.22" y2="132.88" gradientTransform="matrix(1 0 0 -1 -95.525 413.64)" gradientUnits="userSpaceOnUse">
			<stop stop-color="#fff" offset="0"/>
			<stop stop-color="#fff" stop-opacity=".8868" offset=".147"/>
			<stop stop-color="#fff" stop-opacity=".23" offset="1"/>
		</linearGradient>
		<radialGradient id="radialGradient3305" cx="354.11" cy="210.62" r="87.218" gradientTransform="matrix(1 0 0 -1 -95.525 413.64)" gradientUnits="userSpaceOnUse">
			<stop stop-color="#b1def4" offset="0"/>
			<stop stop-color="#9bcef2" offset=".1202"/>
			<stop stop-color="#62a5ec" offset=".3698"/>
			<stop stop-color="#5098ea" offset=".4424"/>
			<stop stop-color="#0b86d2" offset=".6909"/>
			<stop stop-color="#0f7fc5" offset=".7317"/>
			<stop stop-color="#186da2" offset=".8078"/>
			<stop stop-color="#274f69" offset=".91"/>
			<stop stop-color="#363232" offset="1"/>
		</radialGradient>
		<linearGradient id="linearGradient3307" x1="283.84" x2="405.83" y1="247.41" y2="247.41" gradientTransform="matrix(1 0 0 -1 -95.525 413.64)" gradientUnits="userSpaceOnUse">
			<stop offset="0"/>
			<stop stop-color="#000916" offset=".0754"/>
			<stop stop-color="#002150" offset=".233"/>
			<stop stop-color="#0046ab" offset=".4577"/>
			<stop stop-color="#0052c9" offset=".5273"/>
			<stop offset=".9939"/>
		</linearGradient>
		<linearGradient id="linearGradient3309" x1="315.82" x2="362.49" y1="240.5" y2="240.5" gradientTransform="matrix(1 0 0 -1 -95.525 413.64)" gradientUnits="userSpaceOnUse">
			<stop stop-color="#b1def4" offset=".0061"/>
			<stop stop-color="#b1def4" stop-opacity=".07" offset="1"/>
		</linearGradient>
		<linearGradient id="linearGradient3311" x1="212.46" x2="210.96" y1="195.83" y2="252.83" gradientUnits="userSpaceOnUse">
			<stop stop-color="#b1def4" offset=".0061"/>
			<stop stop-color="#b1def4" stop-opacity=".07" offset="1"/>
		</linearGradient>
		<linearGradient id="linearGradient3313" x1="325.93" x2="333.6" y1="150.77" y2="127.44" gradientTransform="matrix(1 0 0 -1 -95.525 413.64)" gradientUnits="userSpaceOnUse">
			<stop stop-color="#647fad" offset=".0061"/>
			<stop stop-color="#5c7197" offset=".2251"/>
			<stop stop-color="#464d5e" offset=".6794"/>
			<stop stop-color="#363232" offset="1"/>
		</linearGradient>
		<linearGradient id="linearGradient3315" x1="299.56" x2="415.89" y1="149.42" y2="114.42" gradientTransform="matrix(1 0 0 -1 -95.525 413.64)" gradientUnits="userSpaceOnUse">
			<stop stop-color="#647fad" offset=".0061"/>
			<stop stop-color="#5c7197" offset=".2251"/>
			<stop stop-color="#464d5e" offset=".6794"/>
			<stop stop-color="#363232" offset="1"/>
		</linearGradient>
		<linearGradient id="linearGradient3317" x1="394.05" x2="410.05" y1="195.11" y2="152.11" gradientTransform="matrix(1 0 0 -1 -95.525 413.64)" gradientUnits="userSpaceOnUse">
			<stop stop-color="#64b0ad" offset=".0061"/>
			<stop stop-color="#5c9a97" offset=".2205"/>
			<stop stop-color="#476160" offset=".6653"/>
			<stop stop-color="#363232" offset="1"/>
		</linearGradient>
		<linearGradient id="linearGradient3319" x1="140.64" x2="231.78" y1="153.57" y2="153.57" gradientTransform="matrix(1 0 0 -.99999 -95.523 413.65)" gradientUnits="userSpaceOnUse">
			<stop stop-color="#fff" offset="0"/>
			<stop stop-color="#fff" stop-opacity="0" offset=".7697"/>
			<stop stop-color="#fff" stop-opacity="0" offset="1"/>
		</linearGradient>
		<linearGradient id="linearGradient3321" x1="273.69" x2="378.69" y1="99.52" y2="163.52" gradientTransform="matrix(1 0 0 .99999 .002319 .006423)" gradientUnits="userSpaceOnUse">
			<stop stop-color="#fff" offset=".0061"/>
			<stop stop-color="#b1def4" stop-opacity=".07" offset="1"/>
		</linearGradient>
		<radialGradient id="radialGradient3323" cx="314.44" cy="191.78" r="257.59" gradientTransform="matrix(1 0 0 -1 -95.525 413.64)" gradientUnits="userSpaceOnUse">
			<stop stop-color="#fff" offset="0"/>
			<stop stop-color="#fff" stop-opacity=".3904" offset=".739"/>
			<stop stop-color="#fff" stop-opacity=".29" offset=".8606"/>
			<stop stop-color="#fff" stop-opacity=".3338" offset=".8803"/>
			<stop stop-color="#fff" stop-opacity=".6" offset="1"/>
		</radialGradient>
		<radialGradient id="radialGradient3325" cx="314.44" cy="191.78" r="257.59" gradientTransform="matrix(1 0 0 -1 -95.525 413.64)" gradientUnits="userSpaceOnUse">
			<stop stop-color="#fff" offset="0"/>
			<stop stop-color="#fff" stop-opacity=".3904" offset=".739"/>
			<stop stop-color="#fff" stop-opacity=".29" offset=".8606"/>
			<stop stop-color="#fff" stop-opacity=".3338" offset=".8803"/>
			<stop stop-color="#fff" stop-opacity=".6" offset="1"/>
		</radialGradient>
	</defs>
	<g transform="translate(0,-243.02)">
		<g transform="matrix(-.36357 0 0 .35138 84.841 191.82)">
			<path d="m116.5 14.5c-0.667 0.3333-1.333 0.6667-2 1v-2c1.425-1.5311 2.091-1.1977 2 1z" fill="#040b09" opacity=".008"/>
		</g>
		<g transform="matrix(-.36357 0 0 .35138 84.841 191.82)">
			<path d="m121.5 15.5c1.333 0.6667 1.333 0.6667 0 0z" opacity=".004"/>
		</g>
		<g transform="matrix(-.36357 0 0 .35138 51.695 303.55)">
			<g transform="matrix(.19443 0 0 .20199 45.315 -177.51)">
				<g id="Inside__x2B__gloss" transform="matrix(1.076 0 0 1.076 -19.823 -21.942)">
					<ellipse cx="263.59" cy="260.19" rx="214.67" ry="209" fill="#4e4a4a"/>
					<path d="m143.09 106.02s-10.499 4.833-9.166 24 8.333 29.417 18.583 42.417 20.75 27 18.5 37.25-9.375 73.708 61.625 98.375l-81.625 61.375s4.25 13.75 19.5 30.75l54.917 47.667s-19.334-1.166-33.334-7c0 0 13.334 13 37.167 12.833l13.167 0.167-63.917-67.917s-7.251-10.916 6.083-20.583 72.667-56.5 72.667-56.5 44.75 2.583 66.75-31.917c0 0-55.75 47.249-97.75 11.583s-45-92.666-45-92.666-0.25-10.667-7-18.417-2.25-40.75-2.25-40.75-8.084-37.584-28.917-30.667z" fill="url(#linearGradient3295)"/>
					<path d="m337 190.94s64.5 4.5 85.5 16.25 15-2.25 12-10.5 13.75-14.75 14.75 0.25 2.5 30 2.25 34.25c0 0-3.75-24.75-7-31.5s-4-2.25-1 9.75 4 17.5 2.5 23.5l-81.75-25.75s-24.667-0.834-27.25-16.25z" fill="url(#linearGradient3297)"/>
				</g>
				<g id="shield_sides" transform="matrix(1.076 0 0 1.076 -19.823 -21.942)">
					<path d="m196 443.44s8.75 11.25 35.25 8l44 14.75s-55 12.25-79.25-22.75z" fill="#112b48"/>
					<path d="m139.25 93.19-23.333 18.667s5-26.334 23.333-18.667" fill="#262626"/>
					<path d="m227.04 312.77 1-3.625s-35.792-12.959-50.292-41.209-13.25-53.25-11.75-62.25c0 0-1.582-6.249-7.749-8.833s-8.001 50.333 11.249 77.333 55 41.75 55 41.75z" fill="#2a4b72"/>
					<path d="m213 325.69s-49.25 38-58.25 51.75-0.666 22.751-0.666 22.751 15.166 19 28.333 30.5 39.833 37.999 75.083 35.999l3.875-2.875 10.625 4s-8.125 9.25-35 4.125c-20.7-3.947-67.75-31.083-91.083-62.083s2.333-42.667 28-63 35.667-23.334 35.667-23.334z" fill="#2a4b72"/>
					<path d="m457.13 197.32s-0.875 3.376-15.375 2.542c0 0-46.25-14.167-77-15.917s-31.999-8.416-37.499-17.083-42.001-35.668-83.334-31.334-67.917 45.667-67.917 45.667l-5.749-2.249 7.166-15.25s23.166-38.167 73.833-41.167 80.333 17.667 94.333 34.667 64.334 14.667 96.334 27c0 0 15.249 3.915 15.208 13.124z" fill="#162e5e"/>
					<path d="m141.75 89.065" fill="none" stroke="#f05a28" stroke-width=".92939"/>
					<path d="m141.13 96.315s-9.5-8.5-17.125 1.75-0.751 33.624 5.083 44.958 12.167 21.917 15.542 26.417c0 0-9.875-9-18.625-22s-14.5-26.25-10.75-43.75 19.917-17.042 25.25-15.166z" fill="#2a4b72"/>
					<path d="m463.13 237.44s7.125-0.251 5.792-10.917-6.667-48.958-31.667-88.708c0 0 21.999 19.709 35.333 75.042s-9.458 24.583-9.458 24.583z" fill="#7f848a"/>
					<path d="m352.17 193.86s-1.707 4.791-2.416 6.416c0 0 16.347 42.774-17.827 88.347l2.326 1.57s45.834-39.666 17.917-96.333z" fill="#7e848a"/>
				</g>
				<g id="_x33__shields__x2B__kern" transform="matrix(1.076 0 0 1.076 -19.823 -21.942)">
					<path d="m445.59 147.86s78 104 3.99 222.97c-40.724 65.46-117.33 96.499-165 99.499s-95.875-45.375-105.75-55-15.75-21.124-3-31.999 84.417-65.334 84.417-65.334 44.76 3.447 78.01-36.303 13.917-87.833 13.917-87.833 4 4.333 8.333 5.999c4.333 1.668 19.75 3.834 39.375 9.334s51.625 17.5 63.25 27.25 11.063-3.979 9.625-13.416c-7.333-48.167-27.167-75.167-27.167-75.167z" fill="#ccd9e1"/>
					<path d="m170.25 179.06s2.313-4.75-1.875-12.125-37.792-59.751-26.458-90.417c0 0 57.333-39.333 136.83-30.833s125 49.5 145 72.5 34.167 65.667 35.167 72.334-1.501 10.332-10.334 5.499-19.666-8.333-39.833-13.333-42.499-7-50.833-7.5-13.833 1e-3 -19.083-6.166-26.917-38.835-76.917-41.501-83.001 33.084-91.667 51.542z" fill="#3a7abd" style="paint-order:fill"/>
					<path d="m229.82 313.82s-55.188 36.875-76.688 59.063c-9.185 9.478-18.875 13.563 0.875 38.313s57.5 55.25 91 58.5c0 0 5.667 3.417 12.584 3.584 0 0-80.667 6.583-146-49.417s-98.246-147.84-67.333-232c20.31-55.288 54.499-84.167 70.124-96.292 8.442-6.552 15.876-7.541 15.876-7.541s-17.584 5.833-11.667 31.083c5.104 21.784 16.166 38.833 21.666 44.833s20.667 23.917 21.167 34.25-8.833 41.333 13.5 75 54.896 40.624 54.896 40.624z" fill="#23a82e"/>
					<ellipse cx="259.59" cy="226.52" rx="86.334" ry="80" fill="url(#radialGradient3305)"/>
				</g>
				<g id="Edge_gloss" transform="matrix(1.076 0 0 1.076 -19.823 -21.942)">
					<g fill="#fff">
						<path d="m425.32 120.05c5.171 8.99 21.656 38.197 25.438 51.641 4.5 16 7.5 26.25-1 21.25s-62.25-17.75-80.375-19.125-26.625-1.375-29-5.25c0 0-25.125-42.875-84.875-42.875s-84.5 50-84.5 50l0.541 0.852c10.308-18.994 42.561-51.567 90.376-49.019 50 2.666 71.667 35.334 76.917 41.501s10.749 5.666 19.083 6.166 30.666 2.5 50.833 7.5 31 8.5 39.833 13.333 11.334 1.168 10.334-5.499c-0.973-6.494-14.434-47.111-33.605-70.475z" opacity=".5"/>
						<path d="m456.75 235.69c7.833 5.667 7.833 3.333 7.833 3.333-1.496-1.785-3.079-3.454-4.729-5.027-13.054-8.901-39.937-19-57.992-24.238-11.664-1.974-21.896-3.03-28.235-4.816 0 0-10.708-2.083-19.375-8.083 0 0 0.621 3.109 1.139 8.198 3.619 16.565 6.26 48.663-17.139 76.635-33.25 39.75-78.01 36.303-78.01 36.303s-71.667 54.459-84.417 65.334-6.875 22.374 3 31.999c8.728 8.508 47.398 47.274 89.175 54.101 1.221 0.12 2.367 0.209 3.419 0.265 0 0-42.167-9.75-66.167-33s-41.5-34-26.75-46 86.5-70.75 86.5-70.75 44.383 2.184 77.917-41.749c27.958-36.626 13.958-77.501 13.958-77.501s17.584 9.25 30.042 9.5c24.662 0.492 61.998 19.829 69.831 25.496z" opacity=".5"/>
						<path d="m470.24 209.38c-11.675-40.627-15.925-41.626-22.3-57.877 6.251 10.625 16.563 28.562 22.3 57.877z"/>
						<path d="m138.25 161.82c-0.101-0.205-0.188-0.404-0.285-0.609-5.871-7.573-14.91-23.02-19.381-42.099-5.029-21.46 6.912-28.891 10.612-30.64-16.248 5.141-15.677 16.641-9.946 39.723 5.833 23.5 19 33.625 19 33.625z" opacity=".8"/>
					</g>
					<path d="m139.25 161.82" fill="none" stroke="#be1e2d" stroke-width=".92939"/>
					<path d="m131.09 88.19" fill="none" stroke="#be1e2d" stroke-width=".92939"/>
					<g fill="#fff">
						<path d="m154 411.19c-3.535-4.43-6.112-8.188-7.934-11.443-1.214-1.271-2.341-1.898-2.941-0.807-1.375 2.5 2.875 6.75 2.875 6.75 43 57 95.5 65.5 95.5 65.5-8.859-2.4-17.355-5.885-25.355-10.012-24.504-11.484-47.964-32.217-62.145-49.988z" opacity=".5"/>
						<path d="m267.5 147.19c-2.863-0.377-5.652-0.584-8.372-0.654-8.49 0.041-16.688 1.222-24.429 3.378-30.453 9.491-46.949 35.526-46.949 35.526s28.079-43.671 88-35.5c56.833 7.75 67 65.25 67 65.25s-4.295-58.654-75.25-68z" opacity=".6"/>
						<path d="m160.25 149.94c-6.5-13-22.833-45.916-18.75-69.75 0 0-0.581 1.019-1.302 2.951-4.647 28.16 19.106 68.525 26.474 80.91-1.593-3.868-3.737-8.739-6.422-14.111z" opacity=".6"/>
					</g>
				</g>
				<g id="Kern_gloss" transform="matrix(1.076 0 0 1.076 -19.823 -21.942)">
					<path d="m307.01 159.68c-77.92-37.325-118.69 25.008-118.69 25.008 7-7.375 31.188-17.5 31.188-17.5 31.25-20.5 58.625-5.75 61.125-4.125s11.125 2.75 16.5 0.25c4.021-1.871 10.281-1.712 13.18-1.513-1.083-0.73-2.183-1.438-3.302-2.12z" fill="url(#linearGradient3307)" opacity=".52"/>
					<path d="m220.63 166.44s26.709-15.25 55.042-5.833c0 0-26.25-12-55.042 5.833z" fill="#fff" opacity=".4"/>
					<path d="m266.96 163.69s-24.375 3.25-36.75 14.75-11.625 1.875-6.125-3.375 19.625-16.375 42.875-11.375z" fill="url(#linearGradient3309)" opacity=".52"/>
					<path d="m228.25 169.52s-21.666 16.667-21.333 54.667-10.168 8.5-10.334 3 0.834-49.167 31.667-57.667z" fill="url(#linearGradient3311)" opacity=".52"/>
					<path d="m185.25 204.94s-6.167 35.417 10 44.75c0 0 21.75 50.5 80.25 26.75 0 0-8.417 9.75-10.25 16.75 0 0-97 17.166-80-88.25z" fill="url(#linearGradient3313)" opacity=".29"/>
					<path d="m275.5 276.44c-58.5 23.75-80.25-26.75-80.25-26.75-1.127-0.556-2.151-1.215-3.085-1.961 13.465 48.423 64.84 39.194 77.832 36.019 2.716-4.077 5.503-7.308 5.503-7.308z" fill="url(#linearGradient3315)" opacity=".38"/>
					<path d="m195.25 249.69s-13.333-9.75-10.249-41.083c0 0-5.917 30.083 10.249 41.083z" fill="#fff" opacity=".4"/>
					<path d="m286.25 289.69s5-20.25 25-35.75 17.75-50.75 0.5-71.75c0 0 27 15.5 29 58.5 0 0-16.5 41.25-54.5 49z" fill="url(#linearGradient3317)" opacity=".38"/>
					<path d="m321.24 190.25c-4.545-4.865-8.323-7.344-9.251-7.916 0.113 0.199 0.235 0.398 0.347 0.6 16.709 21.078 18.689 55.688-1.079 71.01-4.661 3.612-8.498 7.481-11.656 11.293-1.293 1.751-2.094 2.707-2.094 2.707s30-4.75 33-40c1.572-18.491-3.802-30.472-9.267-37.694z" fill="#fff" opacity=".14"/>
					<path d="m312.09 182.69s30.5 40.5-0.417 71.167c0 0 28.583-25.834 0.417-71.167z" fill="#fff" opacity=".4"/>
				</g>
				<g id="Gloss" transform="matrix(1.076 0 0 1.076 -19.823 -21.942)">
					<path d="m82.254 142.2c8.131-12.199 22.5-27.125 29.25-34.5 0 0-68.75 70-57.916 165.5 10.204 89.952 82.667 134.67 82.667 134.67l-12.251 4.583s-145.08-115.22-41.75-270.25z" fill="url(#linearGradient3319)" opacity=".5"/>
					<path d="m32.587 94.857" fill="none" stroke="#f05a28" stroke-width=".92939"/>
					<g fill="#fff">
						<path d="m113.82 116.82s-7.396 3.293-13.646 11.876-7.418 14.916-7.334 21.416 0.584 12.499 6.417 14.499 7-4.917 13.5-7.25c6.5-2.332 9.916-0.582 10.583 1.084s3.001 6.332 12.584 5.249c1e-3 0-22.041-18.416-22.104-46.874z" opacity=".5"/>
						<path d="m153.09 126.78s8.417-30.084-11.458-29.334c0 0 2.875 14 6.25 21.125s3.666 7.918 5.208 8.209z" opacity=".5"/>
						<path d="m184.5 79.531s-3.001-5.999-15.084 0.584-15.917 10.583-14 17.083 7.084 5.749 14.584-0.917 18.417-10.417 14.5-16.75z" opacity=".5"/>
					</g>
					<path d="m400.13 108.32s-112.88-114.62-259.38-17.625c0 0 0.75 3.25 3.625 1.5s48.875-34.5 113.38-33.25 105.75 32.25 114.25 40.25 30.833 29.749 28.125 9.125z" fill="url(#linearGradient3321)" opacity=".3"/>
					<g transform="matrix(1 0 0 1 .006125 -.002619)" fill="#fff">
						<path d="m56.253 346.19s-0.119-0.121-0.335-0.377c0.219 0.28 0.335 0.377 0.335 0.377z" opacity=".5"/>
						<path d="m111.42 100.69c3.543-3.985 6.275-6.784 8.067-8.541-1.621 0.927-3.341 2.043-5.109 3.416-7.748 6.013-20.062 16.15-32.981 31.578-6.156 8.304-12.81 18.413-19.81 30.714-19.122 33.604-27.068 63.375-28.751 89.326-0.419 7.546-0.387 15.078 0.063 22.567 0.823 11.626 2.797 22.332 5.354 32.105 8.263 31.576 15.998 41.983 17.665 43.956-1.607-2.047-8.823-13.961-17.332-70.29-9.667-64 32.168-126.5 39.001-137.5s27.167-29.831 33.833-37.331z" opacity=".5"/>
					</g>
					<g transform="matrix(1 0 0 1 -.004295 -.001788)" opacity=".4">
						<path d="m257.59 473.27c-6.917-0.167-12.584-3.584-12.584-3.584-23.012-2.232-48.028-17.323-67.84-34.576-80.047-25.709-124.41-89.424-124.41-89.424 0.116 0.568 0.244 1.123 0.363 1.688 13.733 29.044 33.785 55.32 58.471 76.479 65.333 56 146 49.417 146 49.417z" fill="url(#radialGradient3323)"/>
						<path d="m480.71 280.62c-14.919 36.325-76.471 144.07-202.45 162.57-24.105 3.54-46.484 3.104-67.047-0.048 20.161 14.616 46.848 28.853 73.37 27.184 47.667-3 124.28-34.039 165-99.499 19.716-31.692 28.641-62.321 31.13-90.206z" fill="url(#radialGradient3325)"/>
					</g>
					<g fill="#fff">
						<path d="m174.92 273.2c-22.333-33.667-13-64.667-13.5-75-0.22-4.533-3.262-10.524-7.072-16.331-6.062 13.485-9.429 28.361-9.429 43.998 0 44.582 27.317 83.001 66.677 100.53 10.637-7.505 18.22-12.572 18.22-12.572s-32.563-6.958-54.896-40.625z" opacity=".6"/>
						<path d="m361.7 175.46c-18.999-35.777-57.593-60.264-102.11-60.264-38.846 0-73.175 18.646-93.917 47.167 1.25 2.113 2.199 3.686 2.709 4.583 4.188 7.375 1.875 12.125 1.875 12.125 8.666-18.458 41.667-54.208 91.667-51.542s71.667 35.334 76.917 41.501 10.749 5.666 19.083 6.166c1.047 0.064 2.317 0.151 3.776 0.264z" opacity=".6"/>
						<path d="m259.59 336.53c63.33 0 114.67-49.547 114.67-110.67 0-8.012-0.89-15.82-2.565-23.349-5.408-1.126-9.321-1.937-11.185-2.652-4.333-1.666-8.333-5.999-8.333-5.999s19.333 48.083-13.917 87.833-78.011 36.303-78.011 36.303-9.316 7.078-21.828 16.643c6.862 1.235 13.938 1.888 21.171 1.888z" opacity=".6"/>
					</g>
				</g>
				<g id="decorative_lines" transform="matrix(1.076 0 0 1.076 -19.823 -21.942)">
					<path d="m479 280.69s-3-26.375-22.75-28c0 0 7.25 92.5-95.333 152.33 0 0 19.668 22.999 10.834 36.666 0 0 4.499-16.333-14.334-37.333 0 0 96.083-42.917 97.833-153.67 0 0 21.5 0.666 23.75 30z" opacity=".21"/>
					<path d="m372.75 441.69s7.666-11.165-11.834-36.666c0 0 94.666-47.501 95.333-152.33 0 0 17.5-1.001 22.75 28 0 0-8.251-26.165-21.417-25.499 0 0 7.668 89.833-93.832 148.92 0 0 20.876 27.083 9 37.583z" fill="#ccd7e4" opacity=".82"/>
					<path d="m344.88 455.94s3.543-21.583-12.124-39.083c0 0-28.334 11-48.167 13 0 0 4.499 23.168 26.333 36.834 0 0-16.333-9.666-23.333-34.5 0 0 28.833-4.5 44.833-13.167 0 0 11.249 6.832 12.458 36.916z" opacity=".21"/>
					<path d="m310.92 466.69s-18.5-17.168-21-33.334c0 0 32.792-6.228 43.229-13.78 0 0 10.187 17.612 11.729 36.363 0 0 0.042-26.083-12.458-36.916 0 0-24.333 10.834-44.833 13.167 0 0 6.999 25 23.333 34.5z" fill="#d9dde2" opacity=".82"/>
				</g>
			</g>
		</g>
	</g>
</svg>
