<svg width="1920" height="1080" viewBox="0 0 1920 1080" fill="none" xmlns="http://www.w3.org/2000/svg">
	<g clip-path="url(#clip0_602_1701)">
		<rect width="1920" height="1080" fill="white" />
		<path d="M0 0H793L0 493V0Z" fill="#F06E8E" />
		<path d="M1920 1080L1127 1080L1920 587L1920 1080Z" fill="#F06E8E" />
		<mask id="mask0_602_1701" style="mask-type:alpha" maskUnits="userSpaceOnUse" x="345" y="696" width="236" height="236">
			<circle cx="463" cy="814" r="118" fill="#F06E8E" />
		</mask>
		<g mask="url(#mask0_602_1701)">
			<line x1="345.252" y1="667.636" x2="625.122" y2="742.627" stroke="#F06E8E" stroke-width="4" />
			<line x1="340.475" y1="685.462" x2="620.345" y2="760.453" stroke="#F06E8E" stroke-width="4" />
			<line x1="335.698" y1="703.288" x2="615.568" y2="778.279" stroke="#F06E8E" stroke-width="4" />
			<line x1="330.922" y1="721.114" x2="610.792" y2="796.105" stroke="#F06E8E" stroke-width="4" />
			<line x1="326.145" y1="738.94" x2="606.015" y2="813.931" stroke="#F06E8E" stroke-width="4" />
			<line x1="321.369" y1="756.767" x2="601.239" y2="831.758" stroke="#F06E8E" stroke-width="4" />
			<line x1="316.593" y1="774.593" x2="596.462" y2="849.584" stroke="#F06E8E" stroke-width="4" />
			<line x1="311.816" y1="792.419" x2="591.686" y2="867.41" stroke="#F06E8E" stroke-width="4" />
			<line x1="307.039" y1="810.245" x2="586.909" y2="885.236" stroke="#F06E8E" stroke-width="4" />
			<line x1="302.263" y1="828.071" x2="582.133" y2="903.062" stroke="#F06E8E" stroke-width="4" />
			<line x1="297.486" y1="845.897" x2="577.356" y2="920.888" stroke="#F06E8E" stroke-width="4" />
			<line x1="292.71" y1="863.723" x2="572.58" y2="938.714" stroke="#F06E8E" stroke-width="4" />
			<line x1="287.934" y1="881.549" x2="567.804" y2="956.54" stroke="#F06E8E" stroke-width="4" />
		</g>
		<circle cx="1541.5" cy="246.5" r="87" stroke="#F06E8E" stroke-width="3" />
		<line x1="1172" y1="694.522" x2="1192.48" y2="694.522" stroke="#F06E8E" stroke-width="2" />
		<line x1="1181.96" y1="684" x2="1181.96" y2="704.484" stroke="#F06E8E" stroke-width="2" />
		<line x1="1172" y1="755.974" x2="1192.48" y2="755.974" stroke="#F06E8E" stroke-width="2" />
		<line x1="1181.96" y1="745.452" x2="1181.96" y2="765.935" stroke="#F06E8E" stroke-width="2" />
		<line x1="1172" y1="817.425" x2="1192.48" y2="817.425" stroke="#F06E8E" stroke-width="2" />
		<line x1="1181.96" y1="806.903" x2="1181.96" y2="827.387" stroke="#F06E8E" stroke-width="2" />
		<line x1="1172" y1="878.877" x2="1192.48" y2="878.877" stroke="#F06E8E" stroke-width="2" />
		<line x1="1181.96" y1="868.355" x2="1181.96" y2="888.839" stroke="#F06E8E" stroke-width="2" />
		<line x1="1172" y1="940.328" x2="1192.48" y2="940.328" stroke="#F06E8E" stroke-width="2" />
		<line x1="1181.96" y1="929.806" x2="1181.96" y2="950.29" stroke="#F06E8E" stroke-width="2" />
		<line x1="1172" y1="1001.78" x2="1192.48" y2="1001.78" stroke="#F06E8E" stroke-width="2" />
		<line x1="1181.96" y1="991.258" x2="1181.96" y2="1011.74" stroke="#F06E8E" stroke-width="2" />
		<line x1="1233.45" y1="694.522" x2="1253.94" y2="694.522" stroke="#F06E8E" stroke-width="2" />
		<line x1="1243.41" y1="684" x2="1243.41" y2="704.484" stroke="#F06E8E" stroke-width="2" />
		<line x1="1233.45" y1="755.974" x2="1253.94" y2="755.974" stroke="#F06E8E" stroke-width="2" />
		<line x1="1243.41" y1="745.452" x2="1243.41" y2="765.935" stroke="#F06E8E" stroke-width="2" />
		<line x1="1233.45" y1="817.425" x2="1253.94" y2="817.425" stroke="#F06E8E" stroke-width="2" />
		<line x1="1243.41" y1="806.903" x2="1243.41" y2="827.387" stroke="#F06E8E" stroke-width="2" />
		<line x1="1233.45" y1="878.877" x2="1253.94" y2="878.877" stroke="#F06E8E" stroke-width="2" />
		<line x1="1243.41" y1="868.355" x2="1243.41" y2="888.839" stroke="#F06E8E" stroke-width="2" />
		<line x1="1233.45" y1="940.328" x2="1253.94" y2="940.328" stroke="#F06E8E" stroke-width="2" />
		<line x1="1243.41" y1="929.806" x2="1243.41" y2="950.29" stroke="#F06E8E" stroke-width="2" />
		<line x1="1233.45" y1="1001.78" x2="1253.94" y2="1001.78" stroke="#F06E8E" stroke-width="2" />
		<line x1="1243.41" y1="991.258" x2="1243.41" y2="1011.74" stroke="#F06E8E" stroke-width="2" />
		<line x1="1294.9" y1="694.522" x2="1315.39" y2="694.522" stroke="#F06E8E" stroke-width="2" />
		<line x1="1304.86" y1="684" x2="1304.86" y2="704.484" stroke="#F06E8E" stroke-width="2" />
		<line x1="1294.9" y1="755.974" x2="1315.39" y2="755.974" stroke="#F06E8E" stroke-width="2" />
		<line x1="1304.86" y1="745.452" x2="1304.86" y2="765.935" stroke="#F06E8E" stroke-width="2" />
		<line x1="1294.9" y1="817.425" x2="1315.39" y2="817.425" stroke="#F06E8E" stroke-width="2" />
		<line x1="1304.86" y1="806.903" x2="1304.86" y2="827.387" stroke="#F06E8E" stroke-width="2" />
		<line x1="1294.9" y1="878.877" x2="1315.39" y2="878.877" stroke="#F06E8E" stroke-width="2" />
		<line x1="1304.86" y1="868.355" x2="1304.86" y2="888.839" stroke="#F06E8E" stroke-width="2" />
		<line x1="1294.9" y1="940.328" x2="1315.39" y2="940.328" stroke="#F06E8E" stroke-width="2" />
		<line x1="1304.86" y1="929.806" x2="1304.86" y2="950.29" stroke="#F06E8E" stroke-width="2" />
		<line x1="1294.9" y1="1001.78" x2="1315.39" y2="1001.78" stroke="#F06E8E" stroke-width="2" />
		<line x1="1304.86" y1="991.258" x2="1304.86" y2="1011.74" stroke="#F06E8E" stroke-width="2" />
		<line x1="1356.35" y1="694.522" x2="1376.84" y2="694.522" stroke="#F06E8E" stroke-width="2" />
		<line x1="1366.32" y1="684" x2="1366.32" y2="704.484" stroke="#F06E8E" stroke-width="2" />
		<line x1="1356.35" y1="755.974" x2="1376.84" y2="755.974" stroke="#F06E8E" stroke-width="2" />
		<line x1="1366.32" y1="745.452" x2="1366.32" y2="765.935" stroke="#F06E8E" stroke-width="2" />
		<line x1="1356.35" y1="817.425" x2="1376.84" y2="817.425" stroke="#F06E8E" stroke-width="2" />
		<line x1="1366.32" y1="806.903" x2="1366.32" y2="827.387" stroke="#F06E8E" stroke-width="2" />
		<line x1="1356.35" y1="878.877" x2="1376.84" y2="878.877" stroke="#F06E8E" stroke-width="2" />
		<line x1="1366.32" y1="868.355" x2="1366.32" y2="888.839" stroke="#F06E8E" stroke-width="2" />
		<line x1="1356.35" y1="940.328" x2="1376.84" y2="940.328" stroke="#F06E8E" stroke-width="2" />
		<line x1="1366.32" y1="929.806" x2="1366.32" y2="950.29" stroke="#F06E8E" stroke-width="2" />
		<line x1="1356.35" y1="1001.78" x2="1376.84" y2="1001.78" stroke="#F06E8E" stroke-width="2" />
		<line x1="1366.32" y1="991.258" x2="1366.32" y2="1011.74" stroke="#F06E8E" stroke-width="2" />
		<line x1="1417.81" y1="694.522" x2="1438.29" y2="694.522" stroke="#F06E8E" stroke-width="2" />
		<line x1="1427.77" y1="684" x2="1427.77" y2="704.484" stroke="#F06E8E" stroke-width="2" />
		<line x1="1417.81" y1="755.974" x2="1438.29" y2="755.974" stroke="#F06E8E" stroke-width="2" />
		<line x1="1427.77" y1="745.452" x2="1427.77" y2="765.935" stroke="#F06E8E" stroke-width="2" />
		<line x1="1417.81" y1="817.425" x2="1438.29" y2="817.425" stroke="#F06E8E" stroke-width="2" />
		<line x1="1427.77" y1="806.903" x2="1427.77" y2="827.387" stroke="#F06E8E" stroke-width="2" />
		<line x1="1417.81" y1="878.877" x2="1438.29" y2="878.877" stroke="#F06E8E" stroke-width="2" />
		<line x1="1427.77" y1="868.355" x2="1427.77" y2="888.839" stroke="#F06E8E" stroke-width="2" />
		<line x1="1417.81" y1="940.328" x2="1438.29" y2="940.328" stroke="#F06E8E" stroke-width="2" />
		<line x1="1427.77" y1="929.806" x2="1427.77" y2="950.29" stroke="#F06E8E" stroke-width="2" />
		<line x1="1417.81" y1="1001.78" x2="1438.29" y2="1001.78" stroke="#F06E8E" stroke-width="2" />
		<line x1="1427.77" y1="991.258" x2="1427.77" y2="1011.74" stroke="#F06E8E" stroke-width="2" />
		<line x1="1479.26" y1="694.522" x2="1499.74" y2="694.522" stroke="#F06E8E" stroke-width="2" />
		<line x1="1489.22" y1="684" x2="1489.22" y2="704.484" stroke="#F06E8E" stroke-width="2" />
		<line x1="1479.26" y1="755.974" x2="1499.74" y2="755.974" stroke="#F06E8E" stroke-width="2" />
		<line x1="1489.22" y1="745.452" x2="1489.22" y2="765.935" stroke="#F06E8E" stroke-width="2" />
		<line x1="1479.26" y1="817.425" x2="1499.74" y2="817.425" stroke="#F06E8E" stroke-width="2" />
		<line x1="1489.22" y1="806.903" x2="1489.22" y2="827.387" stroke="#F06E8E" stroke-width="2" />
		<line x1="1479.26" y1="878.877" x2="1499.74" y2="878.877" stroke="#F06E8E" stroke-width="2" />
		<line x1="1489.22" y1="868.355" x2="1489.22" y2="888.839" stroke="#F06E8E" stroke-width="2" />
		<line x1="1479.26" y1="940.328" x2="1499.74" y2="940.328" stroke="#F06E8E" stroke-width="2" />
		<line x1="1489.22" y1="929.806" x2="1489.22" y2="950.29" stroke="#F06E8E" stroke-width="2" />
		<line x1="1479.26" y1="1001.78" x2="1499.74" y2="1001.78" stroke="#F06E8E" stroke-width="2" />
		<line x1="1489.22" y1="991.258" x2="1489.22" y2="1011.74" stroke="#F06E8E" stroke-width="2" />
		<line x1="1540.71" y1="694.522" x2="1561.19" y2="694.522" stroke="#F06E8E" stroke-width="2" />
		<line x1="1550.67" y1="684" x2="1550.67" y2="704.484" stroke="#F06E8E" stroke-width="2" />
		<line x1="1540.71" y1="755.974" x2="1561.19" y2="755.974" stroke="#F06E8E" stroke-width="2" />
		<line x1="1550.67" y1="745.452" x2="1550.67" y2="765.935" stroke="#F06E8E" stroke-width="2" />
		<line x1="1540.71" y1="817.425" x2="1561.19" y2="817.425" stroke="#F06E8E" stroke-width="2" />
		<line x1="1550.67" y1="806.903" x2="1550.67" y2="827.387" stroke="#F06E8E" stroke-width="2" />
		<line x1="1540.71" y1="878.877" x2="1561.19" y2="878.877" stroke="#F06E8E" stroke-width="2" />
		<line x1="1550.67" y1="868.355" x2="1550.67" y2="888.839" stroke="#F06E8E" stroke-width="2" />
		<line x1="1540.71" y1="940.328" x2="1561.19" y2="940.328" stroke="#F06E8E" stroke-width="2" />
		<line x1="1550.67" y1="929.806" x2="1550.67" y2="950.29" stroke="#F06E8E" stroke-width="2" />
		<line x1="1540.71" y1="1001.78" x2="1561.19" y2="1001.78" stroke="#F06E8E" stroke-width="2" />
		<line x1="1550.67" y1="991.258" x2="1550.67" y2="1011.74" stroke="#F06E8E" stroke-width="2" />
		<line x1="1602.16" y1="694.522" x2="1622.64" y2="694.522" stroke="#F06E8E" stroke-width="2" />
		<line x1="1612.12" y1="684" x2="1612.12" y2="704.484" stroke="#F06E8E" stroke-width="2" />
		<line x1="1602.16" y1="755.974" x2="1622.64" y2="755.974" stroke="#F06E8E" stroke-width="2" />
		<line x1="1612.12" y1="745.452" x2="1612.12" y2="765.935" stroke="#F06E8E" stroke-width="2" />
		<line x1="1602.16" y1="817.425" x2="1622.64" y2="817.425" stroke="#F06E8E" stroke-width="2" />
		<line x1="1612.12" y1="806.903" x2="1612.12" y2="827.387" stroke="#F06E8E" stroke-width="2" />
		<line x1="1602.16" y1="878.877" x2="1622.64" y2="878.877" stroke="#F06E8E" stroke-width="2" />
		<line x1="1612.12" y1="868.355" x2="1612.12" y2="888.839" stroke="#F06E8E" stroke-width="2" />
		<line x1="1602.16" y1="940.328" x2="1622.64" y2="940.328" stroke="#F06E8E" stroke-width="2" />
		<line x1="1612.12" y1="929.806" x2="1612.12" y2="950.29" stroke="#F06E8E" stroke-width="2" />
		<line x1="1602.16" y1="1001.78" x2="1622.64" y2="1001.78" stroke="#F06E8E" stroke-width="2" />
		<line x1="1612.12" y1="991.258" x2="1612.12" y2="1011.74" stroke="#F06E8E" stroke-width="2" />
		<line x1="1663.61" y1="694.522" x2="1684.1" y2="694.522" stroke="#F06E8E" stroke-width="2" />
		<line x1="1673.57" y1="684" x2="1673.57" y2="704.484" stroke="#F06E8E" stroke-width="2" />
		<line x1="1663.61" y1="755.974" x2="1684.1" y2="755.974" stroke="#F06E8E" stroke-width="2" />
		<line x1="1673.57" y1="745.452" x2="1673.57" y2="765.935" stroke="#F06E8E" stroke-width="2" />
		<line x1="1663.61" y1="817.425" x2="1684.1" y2="817.425" stroke="#F06E8E" stroke-width="2" />
		<line x1="1673.57" y1="806.903" x2="1673.57" y2="827.387" stroke="#F06E8E" stroke-width="2" />
		<line x1="1663.61" y1="878.877" x2="1684.1" y2="878.877" stroke="#F06E8E" stroke-width="2" />
		<line x1="1673.57" y1="868.355" x2="1673.57" y2="888.839" stroke="#F06E8E" stroke-width="2" />
		<line x1="1663.61" y1="940.328" x2="1684.1" y2="940.328" stroke="#F06E8E" stroke-width="2" />
		<line x1="1673.57" y1="929.806" x2="1673.57" y2="950.29" stroke="#F06E8E" stroke-width="2" />
		<line x1="1663.61" y1="1001.78" x2="1684.1" y2="1001.78" stroke="#F06E8E" stroke-width="2" />
		<line x1="1673.57" y1="991.258" x2="1673.57" y2="1011.74" stroke="#F06E8E" stroke-width="2" />
		<line x1="1725.06" y1="694.522" x2="1745.55" y2="694.522" stroke="#F06E8E" stroke-width="2" />
		<line x1="1735.03" y1="684" x2="1735.03" y2="704.484" stroke="#F06E8E" stroke-width="2" />
		<line x1="1725.06" y1="755.974" x2="1745.55" y2="755.974" stroke="#F06E8E" stroke-width="2" />
		<line x1="1735.03" y1="745.452" x2="1735.03" y2="765.935" stroke="#F06E8E" stroke-width="2" />
		<line x1="1725.06" y1="817.425" x2="1745.55" y2="817.425" stroke="#F06E8E" stroke-width="2" />
		<line x1="1735.03" y1="806.903" x2="1735.03" y2="827.387" stroke="#F06E8E" stroke-width="2" />
		<line x1="1725.06" y1="878.877" x2="1745.55" y2="878.877" stroke="#F06E8E" stroke-width="2" />
		<line x1="1735.03" y1="868.355" x2="1735.03" y2="888.839" stroke="#F06E8E" stroke-width="2" />
		<line x1="1725.06" y1="940.328" x2="1745.55" y2="940.328" stroke="#F06E8E" stroke-width="2" />
		<line x1="1735.03" y1="929.806" x2="1735.03" y2="950.29" stroke="#F06E8E" stroke-width="2" />
		<line x1="1725.06" y1="1001.78" x2="1745.55" y2="1001.78" stroke="#F06E8E" stroke-width="2" />
		<line x1="1735.03" y1="991.258" x2="1735.03" y2="1011.74" stroke="#F06E8E" stroke-width="2" />
		<line x1="1786.52" y1="694.522" x2="1807" y2="694.522" stroke="#F06E8E" stroke-width="2" />
		<line x1="1796.48" y1="684" x2="1796.48" y2="704.484" stroke="#F06E8E" stroke-width="2" />
		<line x1="1786.52" y1="755.974" x2="1807" y2="755.974" stroke="#F06E8E" stroke-width="2" />
		<line x1="1796.48" y1="745.452" x2="1796.48" y2="765.935" stroke="#F06E8E" stroke-width="2" />
		<line x1="1786.52" y1="817.425" x2="1807" y2="817.425" stroke="#F06E8E" stroke-width="2" />
		<line x1="1796.48" y1="806.903" x2="1796.48" y2="827.387" stroke="#F06E8E" stroke-width="2" />
		<line x1="1786.52" y1="878.877" x2="1807" y2="878.877" stroke="#F06E8E" stroke-width="2" />
		<line x1="1796.48" y1="868.355" x2="1796.48" y2="888.839" stroke="#F06E8E" stroke-width="2" />
		<line x1="1786.52" y1="940.328" x2="1807" y2="940.328" stroke="#F06E8E" stroke-width="2" />
		<line x1="1796.48" y1="929.806" x2="1796.48" y2="950.29" stroke="#F06E8E" stroke-width="2" />
		<line x1="1786.52" y1="1001.78" x2="1807" y2="1001.78" stroke="#F06E8E" stroke-width="2" />
		<line x1="1796.48" y1="991.258" x2="1796.48" y2="1011.74" stroke="#F06E8E" stroke-width="2" />
		<circle cx="1023" cy="919" r="11" fill="#F06E8E" />
		<path d="M1308 298.5L1266.75 322.316L1266.75 274.684L1308 298.5Z" fill="#F06E8E" />
		<path d="M96.4996 676.244L200 736L96.4996 795.756L96.4996 676.244Z" stroke="#F06E8E" stroke-width="2" />
		<path d="M721 755.5L679.75 779.316L679.75 731.684L721 755.5Z" fill="#F06E8E" />
		<path opacity="0.3" d="M516 370L1365 -163" stroke="#F06E8E" stroke-width="30" stroke-linecap="round" />
		<path opacity="0.3" d="M1079 271L1317 122" stroke="#F06E8E" stroke-width="16" stroke-linecap="round" />
		<path opacity="0.3" d="M206 1214L705 901" stroke="#F06E8E" stroke-width="69" stroke-linecap="round" />
		<path opacity="0.3" d="M131 916L370 766" stroke="#F06E8E" stroke-width="7" stroke-linecap="round" />
		<path opacity="0.3" d="M755 1191L1392 791" stroke="#F06E8E" stroke-width="30" stroke-linecap="round" />
		<path opacity="0.3" d="M1589 261L2088 -52" stroke="#F06E8E" stroke-width="30" stroke-linecap="round" />
		<path opacity="0.3" d="M1675 455L1901 313" stroke="#F06E8E" stroke-width="4" stroke-linecap="round" />
	</g>
	<defs>
		<clipPath id="clip0_602_1701">
			<rect width="1920" height="1080" fill="white" />
		</clipPath>
	</defs>
</svg>
