<svg class="jipt-loader-logo" xmlns="http://www.w3.org/2000/svg" xmlns:xlink="http://www.w3.org/1999/xlink" viewBox="-12 -12 96 96" shape-rendering="geometricPrecision" text-rendering="geometricPrecision" width="96" height="96" style="background-color:transparent">
	<style>
		#ea69YclA0j22_tr {
			animation: ea69YclA0j22_tr__tr 3000ms linear infinite normal forwards;
		}

		@keyframes ea69YclA0j22_tr__tr {
			0% {
				transform: translate(36px, 36px) rotate(0deg);
			}

			16.666667% {
				transform: translate(36px, 36px) rotate(0deg);
			}

			33.333333% {
				transform: translate(36px, 36px) rotate(90deg);
				animation-timing-function: cubic-bezier(0, 0, 0.58, 1);
			}

			50% {
				transform: translate(36px, 36px) rotate(90deg);
				animation-timing-function: cubic-bezier(0, 0, 0.58, 1);
			}

			66.666667% {
				transform: translate(36px, 36px) rotate(180deg);
			}

			100% {
				transform: translate(36px, 36px) rotate(180deg);
			}
		}

		#ea69YclA0j23_tr {
			animation: ea69YclA0j23_tr__tr 3000ms linear infinite normal forwards;
		}

		@keyframes ea69YclA0j23_tr__tr {
			0% {
				transform: translate(36px, 36px) rotate(0deg);
			}

			16.666667% {
				transform: translate(36px, 36px) rotate(90deg);
				animation-timing-function: cubic-bezier(0, 0, 0.58, 1);
			}

			33.333333% {
				transform: translate(36px, 36px) rotate(90deg);
				animation-timing-function: cubic-bezier(0, 0, 0.58, 1);
			}

			50% {
				transform: translate(36px, 36px) rotate(180deg);
			}

			100% {
				transform: translate(36px, 36px) rotate(180deg);
			}
		}
	</style>
	<g id="ea69YclA0j22_tr" transform="translate(36,36) rotate(0)">
		<path d="M49.7297,72h-27.4594C8.02429,72,0,63.8244,0,49.7297v-27.4594C0,8.17563,8.02429,0,22.2703,0h27.4594C64.275,0,72,7.87631,72,22.2703v27.4594C72,64.1237,64.275,72,49.7297,72Z" transform="translate(-36,-36)" fill="#1e88e5"></path>
	</g>
	<g id="ea69YclA0j23_tr" transform="translate(36,36) rotate(0)">
		<path d="M49.7297,72h-27.4594C8.02429,72,0,63.8244,0,49.7297v-27.4594C0,8.17563,8.02429,0,22.2703,0h27.4594C64.275,0,72,7.87631,72,22.2703v27.4594C72,64.1237,64.275,72,49.7297,72Z" transform="translate(-36,-36)" fill="#43a047"></path>
	</g>
	<path d="M49.7297,72h-27.4594C8.02429,72,0,63.8244,0,49.7297v-27.4594C0,8.17563,8.02429,0,22.2703,0h27.4594C64.275,0,72,7.87631,72,22.2703v27.4594C72,64.1237,64.275,72,49.7297,72Z" fill="#263238"></path>
	<path d="M46.2564,49.0537c-1.3472,0-2.5476-.4181-3.5412-1.2371-1.1871-.9641-2.1307-2.4016-2.1641-4.0914-.0166-.8536.8803-.8536.8803-.8536s1.4572-.0172,2.1641-.0172c.7069.0172.9136,1.0366.947,1.2924.2734,2.291,1.5238,3.2897,2.4841,3.7458.5769.273.4335,1.1266-.7702,1.1646v-.0035Z" fill="#fff"></path>
	<path d="M34.1594,37.4118c-1.1871-.1451-2.9477-.2695-4.0847-.5598-1.844-.4699-1.7939-2.1874-1.7139-2.7472.2234-1.6794.8169-3.2344,1.7306-4.6789c1.137-1.7692,2.7709-3.3242,4.8716-4.589c3.9413-2.3671,9.4531-3.6871,15.5085-3.6871c4.4381,0,9.0696.5978,9.1163.5978.4168.0553.7203.47.7036.9399s-.3368.8294-.7536.8674c-.6736-.0173-1.3305-.0173-1.954-.0173-6.1687,0-10.5602.8674-13.8279,2.7472-3.2211,1.8418-5.4651,4.6616-6.9857,8.836-.16.3628-.6902,2.5122-2.6108,2.2945v-.0035Z" fill="#fff"></path>
	<path d="M39.5413,54.6382c-3.061.0657-5.9453-1.3684-8.1293-3.8703-1.8506-2.1182-2.9643-4.2538-3.1711-6.9941-.1267-1.79.6369-2.4085,1.6739-2.3014.7169.0725,2.9477.1831,4.2248.4561.9569.2004,1.5938.7499,1.7539,1.8799.8436,6.0265,4.5115,8.3971,6.6955,8.9085.3835.0899.6202.3456.6069.8052-.0167.4388-.2601,1.0401-3.6512,1.1127l-.0034.0034Z" fill="#fff"></path>
	<path d="M30.8214,59.9874c-2.1707.0933-4.2947-.3593-4.9016-.4699-2.5542-.47-4.6949-1.282-6.5288-2.4881-4.3915-2.8819-7.0424-7.972-7.3591-13.9986-.0801-1.4306-.2568-4.164,3.0343-3.9567c1.3571.0761,3.5112.7534,5.0283,1.206c1.884.546,2.7943,2.0527,2.7943,3.542c0,8.4974,7.4258,14.1127,10.6669,14.1127.7735,0,.9569.4769.8636.933-.0734.3629-.2701.978-3.5945,1.1231l-.0034-.0035Z" fill="#fff"></path>
	<path d="M19.4942,35.0168c-1.2837-.2384-2.5375-.7878-3.7579-1.1023-3.7746-.971-3.131-4.9173-2.7776-5.9989c3.4345-10.4774,14.3381-13.9814,23.1377-14.9178c8.2861-.8812,16.9556-.2005,25.0316,2.1286.5769.159,2.1674.5564,1.824,1.5239s-1.3005.2938-10.1101.0933c-2.9043-.0656-5.8052.1244-8.7162.5875-4.995.7879-10.13,2.4224-14.258,5.871-1.9907,1.6691-3.7413,3.7978-4.9117,6.3134-.3067.66-.5468,1.3201-.7536,1.9801-.21.698-.997,4.202-4.7049,3.5247l-.0033-.0035Z" fill="#fff"></path>
	<path d="M40.618,37.0388c.7069-3.2793,3.848-8.4766,13.5712-8.1172c2.2307.0726,1.2104,1.6483.11,1.6138-5.4985-.197-8.106,3.4763-9.4731,7.2015-.4402,1.1991-1.4438,1.3788-2.7009,1.1645-.8803-.1624-1.8373-.2695-1.5072-1.8626Z" fill="#fff"></path>
</svg>
