<svg width="64" height="64" viewBox="0 0 64 64" fill="none" xmlns="http://www.w3.org/2000/svg">
	<path d="M58.6824 20.0782C52.676 6.65308 37.6167 -0.352722 23.3061 4.14378C9.05187 8.61498 1.67921 22.0562 2.92121 34.7913C2.82346 19.7746 14.5224 11.1611 23.9973 9.92483C35.2431 8.46203 45.5828 14.2626 50.1115 24.6793C54.1652 34.0093 51.1879 43.8234 47.2675 48.589C50.2092 42.4894 50.7187 36.3438 48.2358 30.0947C45.7426 23.8352 41.2657 19.5078 34.9188 17.2929C23.8328 13.4346 13.5185 19.065 9.46471 25.7005C17.4296 16.2521 30.2521 17.6022 36.8773 24.1446C43.8164 31.002 44.4086 42.1651 38.1032 49.5216C33.4204 54.9772 26.9091 56.5999 21.6237 55.9455C20.4438 55.7753 19.311 55.5488 18.2749 55.2912C18.9752 55.466 20.6761 55.4464 20.6761 55.4464C22.4229 55.4407 26.9505 54.37 30.3867 51.1914C32.0254 49.6769 32.8132 48.1784 33.4514 46.6018C35.3627 41.8879 33.8171 37.3397 33.4618 36.4323C32.1278 33.0628 29.6242 31.1676 28.5168 30.3684C28.3776 29.7715 28.135 29.3587 27.9705 29.1172C27.7129 28.7515 27.0068 28.3501 26.6365 28.3547C26.4203 28.3444 25.7556 28.3087 25.153 28.7722C24.4676 29.3081 24.3802 30.1119 24.3595 30.3741C24.3492 30.5846 24.3239 31.0227 24.6022 31.4402C24.8241 31.7852 25.1335 31.9393 25.2876 32.0175C25.406 32.0738 25.9626 32.3314 26.6112 32.1773C27.0954 32.0589 27.2242 31.8059 27.7187 31.7909C27.7187 31.7909 28.0073 31.7139 28.2592 31.8737C29.2125 32.497 31.2365 34.1979 32.4831 37.7054C34.4404 43.2127 31.3803 47.9369 31.0249 48.4567C28.434 52.2736 23.1072 53.856 22.5862 53.7674C29.4839 51.8561 30.3499 43.6808 27.6037 39.466C27.3921 39.0382 27.3001 38.6311 27.3817 38.101C27.5416 37.1016 26.5986 36.0712 25.651 36.0298C24.7494 35.9942 23.9616 36.8337 23.9766 37.8077C24.0019 38.9313 24.8115 39.7708 25.8879 39.6362C26.0121 39.6213 26.1144 39.6213 26.2122 39.6316C26.3663 39.6834 26.4951 39.7294 26.5733 39.7708C26.6043 39.7961 26.6354 39.8168 26.6664 39.8432C26.7182 39.895 26.7745 39.9663 26.8412 40.0594C26.8516 40.0744 26.8619 40.0905 26.8769 40.1054C27.5002 41.0381 28.4581 43.8613 27.7221 46.9422C26.9953 49.9816 25.3106 51.0948 24.3998 51.7745C22.8438 52.9279 20.8037 53.6133 18.8821 53.8192C19.1604 53.7881 19.4536 53.6961 19.6963 53.6283C21.9836 52.9946 24.6424 50.5785 25.0231 48.0289C25.0231 48.0289 25.1979 47.715 25.6107 47.2814C26.1363 46.7202 25.9718 46.1487 25.6418 45.607C25.3589 45.1436 24.9046 44.9584 24.3894 45.1953C23.7765 45.4794 23.5292 45.9888 23.7305 46.6374C23.8489 47.0135 24.3745 47.3228 24.271 47.7656C23.8696 49.5274 22.1791 51.5054 20.3299 52.4541C18.7843 53.2476 17.2744 53.3454 15.6724 53.2729C14.1429 53.2062 12.5973 52.9693 11.1081 52.1287C11.031 52.0873 10.954 52.0516 10.8758 52.0056C10.8919 52.0206 10.9114 52.0367 10.9275 52.0516C11.675 52.8497 13.0608 54.2102 15.0434 55.4775C23.4556 61.4897 35.181 64.1473 47.2468 56.946C59.4966 49.6286 64.8694 33.8954 58.6824 20.0782Z" fill="#F06E8E"/>
</svg>
