<svg viewBox="0 0 666.67 666.67" xmlns="http://www.w3.org/2000/svg">
	<path d="m232.09 664.33c0.0515-1.2833 0.60937-3.5333 1.2396-5 0.91923-2.1392 1.1644-1.6776 1.2396 2.3333 0.0515 2.75-0.50629 5-1.2396 5s-1.2912-1.05-1.2396-2.3333zm266.8-6.6744c-1.6995-2.3867-2.397-4.4782-1.6479-4.9412 1.5946-0.98548 5.873 5.2448 5.1307 7.4715-0.30286 0.90861-1.8178-0.19201-3.4828-2.5303zm-264.18-7.2166c-0.0765-4.8695 1.2018-7.7757 3.4201-7.7757 2.4082 0 2.285 1.0147-0.80932 6.6667-2.503 4.5719-2.556 4.5944-2.6108 1.109zm259.94-4.3637c0-1.0567 0.6-2.2921 1.3333-2.7454 0.73333-0.45322 1.3333 0.41137 1.3333 1.9213 0 1.51-0.6 2.7454-1.3333 2.7454-0.73334 0-1.3333-0.86459-1.3333-1.9213zm-254.04-13.745c0.92734-6.3305 2.601-9.5518 4.1553-7.9975 0.89451 0.89451-3.2048 14.331-4.3722 14.331-0.391 0-0.29342-2.85 0.21684-6.3333zm253.52 1.5576c-1.2142-3.1642-0.97388-8.5576 0.38136-8.5576 1.5409 0 2.8093 3.3602 2.8093 7.4424 0 3.6344-1.961 4.3198-3.1907 1.1152zm-8.0241-18.763c-3.5952-5.2909-4.2044-7.1275-2.364-7.1275 1.4062 0 7.3978 10.625 6.4986 11.525-0.37549 0.37549-2.236-1.6032-4.1346-4.3972zm-241.27 1.5419c-1.5554-4.0532-0.94423-8.6694 1.1478-8.6694 2.2056 0 2.7598 6.0703 0.8318 9.1118-0.89931 1.4187-1.2998 1.3292-1.9796-0.44238zm-1.6141-17.241c-0.50023-1.9931-0.30952-4.2238 0.42382-4.9572 0.88889-0.88889 1.6365-0.12539 2.2428 2.2905 0.50024 1.9931 0.30952 4.2238-0.42381 4.9572-0.88889 0.88889-1.6365 0.1254-2.2429-2.2905zm236.28-0.46704c-1.605-2.597-2.6042-12.713-1.168-11.825 0.78121 0.48281 1.8322 3.3151 2.3354 6.294 0.89456 5.2948 0.33242 7.9582-1.1675 5.5314zm-344.85-5.0921c0-3.5567 45.453-90.85 50.219-96.447 0.2706-0.31778 1.1766 0.10681 2.0133 0.94353 1.1395 1.1395-1.4022 6.4052-10.128 20.982-6.407 10.704-17.951 31.579-25.654 46.39-13.527 26.011-16.451 31.01-16.451 28.132zm342.4-13.299c-1.2476-1.9132-1.8097-12.274-0.72477-13.358 0.47317-0.47317 1.2337 0.62747 1.6901 2.4459 1.0476 4.174 0.28226 12.826-0.96533 10.913zm-234.85-1.4596c-1.411-1.411-1.0307-9.7778 0.44444-9.7778 0.73334 0 1.3333 2.4 1.3333 5.3333 0 5.4497-0.22072 6.0015-1.7778 4.4444zm-4.8889-16.907c-2.5667-0.92316-5.8667-2.3786-7.3333-3.2343-2.6294-1.5341-2.6271-1.5564 0.1705-1.5963 3.7758-0.054 12.496 3.6521 12.496 5.3107 0 0.72349-0.15 1.2891-0.33333 1.2569-0.18333-0.0322-2.4333-0.81383-5-1.737zm234.78-8.9368c-1.7464-8.1431-1.7411-7.9344-0.20034-7.9344 1.378 0 2.1796 2.2134 3.5005 9.6667 1.3615 7.6822-1.6163 6.1191-3.3002-1.7323zm-253.97 1.9566c-1.2209-3.1816-0.97268-6.9659 0.51734-7.8868 0.80826-0.49954 1.2438 1.2932 1.1148 4.588-0.23413 5.9752-0.44305 6.3974-1.6321 3.2988zm-118.97-2.1456c-0.53978-0.87339-0.32908-1.8054 0.46823-2.0712 1.712-0.57068 25.19-15.441 38.015-24.078 13.582-9.1469 12.287-5.746-1.8706 4.9136-6.8502 5.1576-16.355 12.399-21.122 16.092-8.5249 6.6046-13.556 8.2752-15.491 5.1442zm122.18-11.412c0.0111-0.55 0.81821-3.669 1.7935-6.9312 2.0032-6.7002 5.5744-9.5162 4.0573-3.1993-1.5103 6.2885-5.9278 13.937-5.8508 10.13zm246.14-9c-0.57803-2.2-1.2746-4.7308-1.548-5.624-0.72767-2.3774 1.9378-3.5614 2.8232-1.2541 0.41316 1.0767 0.53174 3.9647 0.26352 6.4178l-0.48768 4.4603zm-237.86-15.333c0.74456-2.9333 1.8808-5.3333 2.5249-5.3333 1.5396 0 1.4861 2.9979-0.12918 7.2465-2.0888 5.494-3.9072 4.0418-2.3957-1.9132zm233.43-4c-2.3815-5.8892-3.1159-10.482-1.8055-11.292 1.4894-0.92053 4.4754 9.1106 3.6887 12.392-0.41755 1.742-0.83162 1.5-1.8832-1.1004zm-348.69-4.7276c-0.40016-0.40016-4.5433-1.7573-9.207-3.016-6.1413-1.6574-8.612-2.9764-8.96-4.7834-0.40965-2.1272 0.0796-2.3582 3.3181-1.567 6.2166 1.5188 17.799 7.1715 17.799 8.6869 0 1.4946-1.735 1.8943-2.9498 0.67953zm117.71-7.6058c-0.0524-4.2847 0.49446-7.6667 1.2396-7.6667 1.6064 0 1.6064 8.9283 0 12.667-0.82445 1.9186-1.1722 0.51596-1.2396-5zm223.97-11c-0.87411-2.2-1.9393-5.7433-2.3671-7.874-1.1927-5.9405 1.9479-3.0709 3.6803 3.3627 1.7961 6.6701 0.84398 9.9408-1.3133 4.5113zm-224.75-6.0953c-0.84243-3.8355-0.13185-6.5019 1.3404-5.0297 0.35903 0.35903 1.034 2.559 1.5 4.8889 1.1078 5.5388-1.625 5.6742-2.8404 0.14077zm-126.46-14.905-3.7392-5.6667 0.87874-18c0.86599-17.739 0.82982-18.072-2.4928-22.962-3.545-5.2173-2.6854-8.0295 1.251-4.093 5.7187 5.7187 7.1857 12.219 7.2163 31.976 0.0173 11.143 0.5774 19.26 1.3626 19.745 1.5677 0.9689 1.8038 4.6667 0.29792 4.6667-0.56948 0-2.7181-2.55-4.7746-5.6667zm124.48-0.18562c0-4.024 0.86475-6.8357 2.768-9l2.768-3.1477-0.93006 3.3333c-0.51153 1.8333-1.2175 5.8833-1.5689 9-0.83865 7.4391-3.037 7.3048-3.037-0.18562zm220 1.1069c0-1.1433 0.6-1.7079 1.3333-1.2546 0.73333 0.45323 1.3333 1.3886 1.3333 2.0787s-0.6 1.2546-1.3333 1.2546-1.3333-0.93541-1.3333-2.0787zm-3.8627-7.6748c-2.9254-7.4662-0.87139-12.511 2.2788-5.5973 0.94618 2.0766 1.0775 4.4436 0.35133 6.3333-1.1513 2.996-1.1699 2.9908-2.6301-0.73604zm-209.47-16.289c0-2.9196 4.2711-9.9572 6.0431-9.9572 2.3997 0 2.3743 0.11398-1.4088 6.3249-2.334 3.8319-4.6343 5.6348-4.6343 3.6323zm202.85-6.5204c-0.89418-2.1431-1.2412-4.8431-0.77115-6 0.68154-1.6774 1.1092-1.441 2.1117 1.1675 0.69136 1.799 1.0384 4.499 0.77115 6-0.42411 2.3822-0.69255 2.2338-2.1117-1.1675zm-197.33-5.9572c-1.2611-0.79906-1.362-1.4225-0.33333-2.0583 1.6912-1.0452 4.1424 0.13271 4.1424 1.9907 0 1.5503-1.4289 1.5757-3.809 0.0676zm193.97-4.4796c3.2028-5.4236 7.983-10.548 12.113-12.984 5.907-3.4852 7.8122-2.0475 2.3935 1.8063-2.2 1.5647-6.1578 5.0948-8.7952 7.8448-4.7031 4.904-7.6568 6.6279-5.7113 3.3333zm-195.49-1.2486c0-1.0496 0.88092-3.0731 1.9576-4.4966 1.9192-2.5374 1.9584-2.5325 2 0.24857 0.0233 1.5602-0.85759 3.5837-1.9576 4.4966-1.6194 1.3439-2 1.2966-2-0.24856zm6.6667-11.331c0-1.6146 10.603-11.735 14.246-13.598 1.6018-0.81898 3.8729-1.489 5.0469-1.489 3.7268 0 0.0596 4.619-7.8193 9.8487-8.292 5.5039-11.473 6.9563-11.473 5.2382zm212-10.88c0-1.601 4.0106-4.7439 8.5056-6.6654 6.08-2.599 5.5285-0.86976-1.1629 3.6462-6.5959 4.4515-7.3428 4.7586-7.3428 3.0193zm-185.33-5.5818c0-1.7186 3.7988-3.2705 5.0189-2.0504 0.49714 0.49714 0.0213 1.4621-1.0575 2.1443-2.581 1.6323-3.9614 1.5996-3.9614-0.0939zm-174.67-5.1047c0-0.63059 0.91676-10.081 2.0372-21 2.3056-22.469 5.9855-40.75 8.3622-41.542 2.3004-0.7668 2.0121 4.0881-1.1407 19.209-2.4108 11.562-6.4938 38.185-6.5661 42.813-0.0143 0.91666-0.62603 1.6667-1.3594 1.6667-0.73333 0-1.3333-0.51594-1.3333-1.1465zm180.55 7e-3c0.38732-0.6267 4.0151-3.6938 8.0618-6.8158 4.8971-3.7781 8.1132-5.3864 9.617-4.8094 2.4052 0.92295 2.2744 1.0395-10.618 9.4602-5.0479 3.297-8.3944 4.3231-7.0606 2.165zm197.72-4.7673c2.8168-3.8098 7.0622-5.3939 7.0622-2.6351 0 1.0314-0.82653 1.8752-1.8367 1.8752-1.0102 0-2.5837 0.9-3.4966 2-2.7671 3.3342-4.2987 2.2356-1.7289-1.2401zm-234.04-12.805c-4.0387-2.4623-5.2791-6.4034-1.7733-5.6344 1.0237 0.22455 1.0737-0.70118 0.16667-3.0868-3.4894-9.1778-0.11097-7.6255 4.3711 2.0084 5.0551 10.866 4.8528 11.357-2.7645 6.7128zm-27.816-0.45884c0.38772-1.0104 0.15537-6.2138-0.51632-11.563-0.6717-5.3494-0.89211-10.055-0.4898-10.458 1.5204-1.5204 3.2131 3.4255 3.2327 9.446 0.0112 3.44 0.59779 6.6115 1.3035 7.0476 0.8046 0.49727 0.72479 2.0182-0.21402 4.0787-1.5465 3.3942-4.5694 4.7148-3.3161 1.4487zm80.307-1.9751c-0.9011-2.8391 0.31915-6.8545 2.083-6.8545 0.65488 0 1.1907 2.1 1.1907 4.6667 0 4.9798-1.9698 6.2962-3.2737 2.1878zm-24.726-0.40647c0-2.6452-4.4455-11.781-5.7326-11.781-0.67066 0-0.78712 1.05-0.2588 2.3333 3.4575 8.3984 1.8577 9.1223-4.7471 2.1482-4.1342-4.3654-4.2859-4.7768-1.513-4.1034 2.6352 0.63996 3.0217 0.28922 2.6667-2.42-0.5658-4.3176 0.71511-4.5285 4.9805-0.81979 2.8799 2.504 3.8405 2.7735 4.7531 1.3333 0.62905-0.99272 1.176-1.505 1.2154-1.1383 1.024 9.5264 1.0026 16-0.053 16-0.72113 0-1.3112-0.69839-1.3112-1.552zm224-0.84803c0-0.58667 0.72-1.7867 1.6-2.6667 2.134-2.134 3.7333-2.0237 3.7333 0.25735 0 1.0215-0.94908 2.2215-2.109 2.6667-2.7604 1.0592-3.2243 1.0222-3.2243-0.25735zm-210.54-2.7025c-1.756-3.281-1.9022-6.8975-0.27903-6.8975 0.6478 0 1.6513-1.35 2.2301-3 0.83714-2.3867 1.158-1.6673 1.5695 3.5194 0.5833 7.3518-1.2357 10.647-3.5205 6.3781zm-61.736-4.9547c-0.9908-0.9908 1.8749-8.6095 3.2384-8.6095 0.57256 0 1.041 0.70276 1.041 1.5617 0 0.85893 0.99633 2.6626 2.214 4.0082 2.6783 2.9595 1.3822 4.8614-1.6168 2.3726-1.6366-1.3582-2.3644-1.3978-3.1233-0.16996-0.5442 0.88053-1.3332 1.2572-1.7534 0.83701zm128.95-1.9428c-0.45322-0.73333-0.41363-1.9974 0.088-2.809 0.89615-1.45 3.1765 0.77199 3.2249 3.1424 0.0298 1.4615-2.3517 1.2219-3.3129-0.33333zm-60.783-3.6395c-0.76106-2.0017-2.0788-4.0691-2.9284-4.5942-0.84955-0.52505-1.1406-1.3587-0.64674-1.8525 1.4024-1.4024 7.6916 6.228 7.6916 9.3319 0 2.2825-2.9334 0.22651-4.1164-2.8852zm214.78 1.6395c0.91292-1.1 2.5598-2 3.6598-2 1.6266 0 1.6901 0.3734 0.34015 2-0.91292 1.1-2.5598 2-3.6598 2-1.6266 0-1.6901-0.3734-0.34015-2zm-307.17-3.5c-1.2824-6.4121-0.98798-16.914 0.5-17.833 0.78556-0.4855 1.3381 0.98855 1.3449 3.588 6e-3 2.4266 0.38994 7.562 0.85238 11.412 0.92155 7.6722-1.2693 9.9735-2.6973 2.8333zm43.167 0.83333c-3.1267-2.3068-3.8079-3.3333-2.2121-3.3333 2.7311 0 8.8788 3.799 8.8788 5.4867 0 1.9675-1.9232 1.3463-6.6667-2.1534zm116.67 2c0.45323-0.73333 1.6886-1.3333 2.7454-1.3333s1.9213 0.6 1.9213 1.3333c0 0.73334-1.2354 1.3333-2.7454 1.3333-1.5099 0-2.3745-0.6-1.9213-1.3333zm6-0.5689c0-1.2368 1.14-2.0978 2.7778-2.0978 3.2494 0 2.7901 3.1157-0.55493 3.7644-1.3157 0.25516-2.2228-0.42501-2.2228-1.6667zm-88.394-3.3506c-1.9831-2.3568-3.6057-3.6391-3.6057-2.8495s-0.6 1.4356-1.3333 1.4356c-0.73333 0-1.3333-1.1962-1.3333-2.6583 0-3.7598 4.4775-2.7893 8.0429 1.7433 4.1292 5.2495 2.4954 7.3986-1.7705 2.3288zm-193.15 1.2528c-2.6968-6.1112-3.7841-12.107-3.7841-20.866 0-7.9124 0.39346-9.801 2.0418-9.801 1.123 0 2.3444 0.78856 2.7143 1.7524 1.0104 2.6332 0.04912 31.228-0.97204 28.914zm288.74-2.109c0.44513-1.16 0.80932-3.0334 0.80932-4.1633 0-1.4947 0.45501-1.6766 1.6704-0.66786 1.1789 0.97843 2.4309 0.83031 4.2548-0.50341 1.4214-1.0394 4.1497-1.8898 6.0629-1.8898 1.9132 0 4.1731-0.69457 5.022-1.5435 1.1691-1.1691 2.0162-1.1512 3.4924 0.0739 1.5679 1.3012 2.211 1.149 3.2898-0.77874 0.73753-1.3179 1.827-1.9101 2.421-1.3161 1.8988 1.8988-5.3349 6.1705-10.502 6.2014-5.0741 0.0304-14.379 3.6606-14.379 5.6099 0 0.59751-0.66419 1.0864-1.476 1.0864s-1.1118-0.94907-0.66667-2.109zm139.48 1.5051c0-1.7011 3.2448-7.3961 4.214-7.3961 1.6682 0 1.2762 3.015-0.73675 5.6667-1.6598 2.1865-3.4773 3.0904-3.4773 1.7294zm-161.33-5.1466c0-1.6961 1.8-4.8084 4-6.9161 4.5175-4.328 5.386-2.7882 1.3333 2.3638-1.4667 1.8646-2.6667 4.3455-2.6667 5.5131 0 1.1677-0.6 2.123-1.3333 2.123-0.73334 0-1.3333-1.3877-1.3333-3.0839zm-157.35-4.3052c-0.78602-2.0674-1.7972-6.4444-2.2471-9.7266-1.2316-8.9858 1.5978-5.8624 3.5144 3.8795 1.7309 8.7978 1.0496 11.941-1.2673 5.8471zm13.52-1.7123c-1.6574-2.3276-2.4656-4.232-1.796-4.232 1.9878 0 5.9493 5.0445 5.3569 6.8215-0.31808 0.95425-1.8102-0.13082-3.561-2.5895zm159.83 0.58706c0-4.4634-3.0327-9.8082-5.1625-9.0982-1.3192 0.43974-1.5318-0.22804-0.81615-2.5631 2.0434-6.6669 3.0304-7.4051 4.5515-3.4043 0.7849 2.0644 1.4271 4.3144 1.4271 5 0 0.6856 0.75 1.2557 1.6667 1.267 1.1126 0.0136 1.0055 0.4384-0.32219 1.2778-1.5839 1.0014-1.6518 1.5944-0.33333 2.9129 1.9771 1.9771 2.2175 7.7889 0.32219 7.7889-0.73334 0-1.3333-1.4314-1.3333-3.1809zm7.2182 0.0284c-1.0923-2.8464 0.52623-11.514 2.15-11.514 0.7156 0 0.89398 2.7001 0.41841 6.3333-0.95873 7.3245-1.4024 8.2194-2.5684 5.1808zm139.57-1.3632c-1.0906-1.3141-1.1472-2.186-0.18058-2.7834 0.77412-0.47844 1.7774 0.094 2.2295 1.2721 1.1256 2.9332-0.1115 3.8457-2.0489 1.5113zm-109.46-3.7465c0-2.3465 6.569-8.28 7.8018-7.0471 0.40044 0.40044-1.1912 2.6473-3.5369 4.993-3.1461 3.1461-4.265 3.6849-4.265 2.054zm-18.667-11.071c0-5.5 0.51836-10 1.1519-10 0.63355 0 1.2562 4.5 1.3838 10 0.14305 6.1697-0.29817 10-1.1519 10-0.83315 0-1.3838-3.9792-1.3838-10zm8.0238 5.2277c1.5494-6.8698 2.6428-7.1939 2.6428-0.78326 0 3.8629-0.56656 5.5556-1.8596 5.5556-1.4447 0-1.6194-1.0648-0.78325-4.7723zm112.98 0.12745c-2.0167-1.775-3.6667-3.556-3.6667-3.9579 0-1.8322 3.8108-0.43718 6.4342 2.3553 5.2278 5.5648 3.1205 6.785-2.7676 1.6026zm-305.63 0.25401c-0.57076-1.315-0.66361-2.765-0.20635-3.2222 1.354-1.354 2.4454 0.54793 1.8223 3.1754-0.55247 2.3293-0.62435 2.3313-1.6159 0.0469zm188.63-3.7543c0-1.8398 0.94305-4.5098 2.0957-5.9333 1.9802-2.4455 2.0523-2.3332 1.3083 2.0368-0.99162 5.8251-3.404 8.5865-3.404 3.8965zm8-0.93168c0-2.5645 5.7426-14.923 6.9343-14.923 1.3079 0 0.62646 2.8678-2.4062 10.126-1.7976 4.3021-4.5281 7.1949-4.5281 4.7971zm18.667 0.31494c0-0.41905 0.92857-1.6905 2.0635-2.8254 2.5681-2.5681 4.2678-1.2218 1.9632 1.5551-1.6647 2.0059-4.0267 2.751-4.0267 1.2703zm76-6.4102c-4.165-2.8614-5.3276-4.252-3.8016-4.5468 1.304-0.25188 2.5456-2.2752 3.0516-4.9728 0.81293-4.3333 2.8394-6.9967 4.2501-5.586 0.36084 0.36084-0.31472 2.9709-1.5012 5.8002-1.9945 4.756-1.9917 5.2447 0.0374 6.4774 5.5276 3.3582 6.5996 4.5155 5.297 5.7186-0.83734 0.77334-3.5653-0.30199-7.3333-2.8907zm-114.67 2.7044c0-0.25724 0.6587-2.3572 1.4638-4.6667 1.3569-3.8924 3.8696-5.8095 3.8696-2.9524 0 2.6496-2.6672 8.0868-3.967 8.0868-0.75149 0-1.3663-0.21046-1.3663-0.4677zm14.687-5.8656c0.0373-1.8249 2.4884-4.9356 3.2718-4.1522 1.0503 1.0503-0.62278 5.1522-2.1015 5.1522-0.65487 0-1.1815-0.45-1.1703-1zm24.56-3.5359c-1.1609-4.6256 0.0846-5.8711 2.1018-2.1018 1.0808 2.0194 1.137 3.3519 0.18183 4.3071-0.95517 0.95517-1.6617 0.27294-2.2836-2.2052zm-230.41-2.2974c-1.7256-8.6282-0.0727-18.663 2.412-14.642 0.50161 0.81162 0.35718 1.4757-0.32097 1.4757-0.73364 0-0.78903 2.2949-0.13675 5.6667 1.4557 7.5251 1.472 11.667 0.0457 11.667-0.64167 0-1.5417-1.875-2-4.1667zm195.17-1.088c0-0.69006 0.6-1.6255 1.3333-2.0787 0.73334-0.45323 1.3333 0.11136 1.3333 1.2546s-0.6 2.0787-1.3333 2.0787c-0.73333 0-1.3333-0.56459-1.3333-1.2546zm22.667-7.9213c0-2.9333 0.57379-5.688 1.2751-6.1214s0.93711-1.6688 0.52402-2.7454c-1.547-4.0314 3.3942-1.8319 6.2442 2.7795 3.3905 5.486 2.3001 8.1376-1.3542 3.293l-2.4618-3.2637-0.93145 4.9651c-1.2898 6.8752-3.2958 7.5404-3.2958 1.093zm29.376-6.5326c-0.0308-6.0806 0.48248-8.5766 1.8734-9.1104 1.1412-0.43793 1.5794-1.6339 1.0837-2.9582-0.7045-1.882-0.50861-1.9602 1.2772-0.50954 1.1601 0.9424 2.6224 1.6214 3.2496 1.5088 2.9905-0.53675 4.2177 0.39823 4.8476 3.6933 1.4035 7.342-2.8598 9.8118-6.1377 3.5556l-1.849-3.5289-0.85909 3.4229c-0.47251 1.8826-0.5464 4.2378-0.1642 5.2338 0.38219 0.99598-0.19926 2.9937-1.2921 4.4393-1.8295 2.4201-1.9904 1.9646-2.0294-5.7468zm-358.62-5.2088c-0.07869-2.5439 2.8332-17.025 4.6737-23.243 0.54522-1.842-0.13839-2.0185-4.6344-1.1963-2.9007 0.53043-5.9933 0.51983-6.8726-0.0236-2.4848-1.5357-0.16039-3.9508 3.8218-3.971 7.7727-0.0394 9.4463-1.3193 12.432-9.5073 3.1094-8.5278 4.7237-10.487 5.9686-7.2424 0.70741 1.8435-4e-3 4.8508-2.7279 11.532-0.74905 1.8371 0.56781 2.0224 10.625 1.4945 7.0713-0.37115 12.019-0.0636 12.883 0.80084 1.5414 1.5414-10.436 33.608-12.553 33.608-1.5904 0-0.04092-8.0845 3.7746-19.695 1.7523-5.3321 3.186-9.9821 3.186-10.333 0-0.94674-13.475-0.51836-17.333 0.55106-2.8147 0.78008-3.9212 2.7823-7.1113 12.867-2.0779 6.5688-4.2873 13.143-4.9098 14.61-1.0909 2.5702-1.1351 2.5611-1.2221-0.2506zm423.32-0.51947c-0.47005-1.1569-0.12303-3.8569 0.77115-6 1.4191-3.4013 1.6876-3.5497 2.1117-1.1675 0.26723 1.501-0.0798 4.201-0.77115 6-1.0024 2.6084-1.4301 2.8449-2.1117 1.1675zm-318.62-4.184c-2.5138-3.8365-4.2659-11.713-2.6056-11.713 1.3666 0 6.3448 13.246 5.3515 14.239-0.36236 0.36236-1.598-0.77459-2.746-2.5266zm-12.561-3.3793c-1.8109-3.5344-2.9933-14.784-1.6418-15.619 0.6543-0.40438 1.8751 2.1195 2.713 5.6087 0.83784 3.4891 1.8574 7.6939 2.2657 9.3439 0.88138 3.5619-1.5995 4.0576-3.3369 0.66666zm279.77-2c7e-3 -3.1333 6.5283-12.286 6.6121-9.2802 0.0538 1.9302-4.9856 12.28-5.9791 12.28-0.35177 0-0.63659-1.35-0.63295-3zm-15.039-0.92279c-0.74988-2.8675 0.11946-4.387 1.8854-3.2956 1.5107 0.93365 1.485 5.8851-0.0305 5.8851-0.6478 0-1.4825-1.1653-1.855-2.5895zm-280.06-1.0316c-1.0584-1.7087 2.551-16.147 4.5778-18.312 0.65214-0.69666 1.1857-2.6467 1.1857-4.3333s0.6-3.0667 1.3333-3.0667c2.0866 0 1.6246 11.699-0.51078 12.934-1.0143 0.58644-2.6851 4.0663-3.713 7.7329-1.139 4.0631-2.2611 6.0336-2.8731 5.0456zm9.8716-1.5104c-1.7932-3.3507-1.8459-5.5352-0.13343-5.5352 1.464 0 3.415 6.3882 2.2936 7.5096-0.39532 0.39533-1.3674-0.49317-2.1601-1.9744zm277.93-1.8685c-2.5149-11.074-2.9588-14.43-1.9883-15.03 1.8164-1.1226 2.8486 1.7748 3.6053 10.12 0.70561 7.7816-0.28305 10.783-1.617 4.9095zm-290.39-4.9159c-1.0338-3.883 0.24705-14.53 1.8685-15.533 1.3492-0.83383 1.3039 10.62-0.0611 15.448l-0.94239 3.3333zm22.277-5.0296c-1.4475-6.5921-2.3417-8.037-2.9217-4.7212-0.70773 4.0456-3.006 3.8266-3.006-0.28642 0-1.901 1.1032-3.8768 2.617-4.687 1.4394-0.77032 2.2984-2.2307 1.9091-3.2454-0.38935-1.0146-0.17357-2.175 0.47952-2.5787 0.65308-0.40363 1.7695 3.4772 2.4808 8.6241 1.2591 9.1096 0.0763 14.341-1.5588 6.8945zm282.43 0.2788c1.2391-6.1568 5.284-14.881 5.9802-12.899 0.93018 2.6484-2.3716 13.271-4.7266 15.207-1.7966 1.4766-1.9562 1.1827-1.2536-2.308zm53.682-4.7857c1.9242-6.0625 6.2277-14.727 6.954-14 1.4363 1.4363-4.0132 16.786-5.9594 16.786-1.2988 0-1.6058-0.86-0.9946-2.7857zm-365.1-7.1175c-1.0166-6.2646 0.0578-9.504 3.2315-9.7431 2.3321-0.17567 2.5549 0.34153 1.7472 4.0558-1.103 5.0725-2.9793 10.257-3.7119 10.257-0.28886 0-0.85893-2.0565-1.2668-4.5699zm287.33-11.933c-3.3332-7.3905-3.3581-7.4972-1.7514-7.4972 1.7391 0 5.7403 9.0658 5.1724 11.719-0.31454 1.4697-1.5308-0.0315-3.4209-4.2223zm31.73 4.8362c-7e-3 -1.7989 5.9735-12.333 7.0014-12.333 1.6673 0 1.1427 2.4976-1.6915 8.0531-2.3895 4.6838-5.2998 7.0297-5.3099 4.2802zm-308.92-6.1388c0.6427-4.9803 2.8178-8.74 4.236-7.3218 0.863 0.863-1.8892 9.3147-3.6234 11.127-0.81757 0.85451-1.0375-0.51211-0.61253-3.8055zm368.92-4.7135c0-2.8238 5.2191-9.8117 5.289-7.0815 0.0495 1.9342-3.6689 9.6005-4.6566 9.6005-0.34783 0-0.63242-1.1335-0.63242-2.519zm-374.67-1.6386c0-2.3182 10.254-12.699 11.406-11.547 0.43363 0.43363-1.9554 3.652-5.3089 7.1519-3.3902 3.5383-6.0973 5.4898-6.0973 4.3955zm-48-8.2765c0-3.4599 12.706-23.566 14.893-23.566 2.8605 0 0.52995 5.9509-5.0709 12.948-7.6554 9.5641-9.8218 11.906-9.8218 10.618zm374.67-1.659c0-1.902 8.5473-12.932 8.9906-11.602 0.6247 1.8741-5.8858 12.361-7.674 12.361-0.72413 0-1.3166-0.34189-1.3166-0.75976zm-59.682-5.1336c-2.7367-2.508-4.5639-4.9721-4.0603-5.4757 0.9601-0.9601 11.676 7.3032 11.718 9.0358 0.0521 2.1666-2.913 0.78809-7.6577-3.5601zm-254.68-4.7733c-1.389-2.2242-1.3316-2.6667 0.34594-2.6667 1.1062 0 2.0113 0.25093 2.0113 0.55762s0.3642 1.5067 0.80932 2.6667c1.1591 3.0206-1.1903 2.6069-3.1666-0.55761zm374.36 0.26155c0-0.58948 2.1-3.1072 4.6667-5.5949 5.4662-5.2981 6.1202-4.1574 1.2655 2.2075-3.2116 4.2106-5.9321 5.7641-5.9321 3.3874zm-443.88-5.3641c-2.1212-3.9636-1.8386-9.5641 0.48273-9.5641 1.1687 0 2.2949 1.8942 2.8337 4.7663 1.0782 5.7472-1.1124 8.9163-3.3165 4.7979zm8.0421-4.3287c-1.9837-5.6905-1.9123-9.5954 0.16287-8.9037 1.9573 0.65243 3.8929 10.502 2.3783 12.103-0.5732 0.60556-1.7167-0.83397-2.5412-3.199zm51.82-1.5687c-2.9519-4.8415-3.2689-6.3333-1.3458-6.3333 0.71843 0 2.5306 2.4 4.0271 5.3333 3.2519 6.3743 1.0876 7.1814-2.6813 1zm336.01 1.8733c0-1.7686 5.2499-6.0678 6.2222-5.0955 0.47989 0.4799-0.21678 2.0762-1.5482 3.5474-2.5156 2.7797-4.6741 3.4946-4.6741 1.5482zm59.28-5.8733c0.6576-3.9121 0.40928-5-1.1412-5-3.8123 0-3.5573-2.6445 0.70684-7.3304 2.6752-2.9399 4.7714-4.2523 5.5492-3.4744 1.189 1.1891 0.67643 2.1301-4.0214 7.382-1.3017 1.4552-1.0997 2.1777 1.0121 3.6204 2.6214 1.7909 2.6204 1.8279-0.1539 5.8024l-2.7921 4zm-139.28 0.56575c0-1.8242 6.3692-7.2205 7.9143-6.7054 0.79107 0.26369-0.0903 2.128-1.9586 4.1429-3.3405 3.6026-5.9557 4.7278-5.9557 2.5625zm89.583-6.9824c0.32083-0.9625 1.3708-2.0125 2.3333-2.3333 1-0.33334 1.5 0.16666 1.1667 1.1667-0.32083 0.9625-1.3708 2.0125-2.3333 2.3333-1 0.33333-1.5-0.16667-1.1667-1.1667zm-348.25-9.838c0-2.6099 0.6-4.7454 1.3333-4.7454s1.3333 1.7646 1.3333 3.9213-0.6 4.2921-1.3333 4.7454c-0.79349 0.49041-1.3333-1.0973-1.3333-3.9213zm272.02 3.7946c0.0391-2.3119 2.349-4.8613 3.9277-4.3351 1.0271 0.34237 0.60977 1.4169-1.1791 3.0358-1.5229 1.3782-2.7598 1.9629-2.7486 1.2992zm83.98-0.4595c0-0.7776 1.4789-1.4138 3.2864-1.4138 4.1511 0 6.5416-4.2437 5.5243-9.8071-0.42167-2.3061-0.22413-5.0514 0.43897-6.1007 1.8641-2.9497 3.2689 6.8286 1.849 12.87-1.0803 4.5965-1.618 5.0738-6.1413 5.4514-2.8644 0.23911-4.9574-0.1831-4.9574-1zm-427.07-4.0805c-1.4938-8.7856-2.2105-31.332-1.0544-33.171 0.63526-1.0106 1.8221-1.4252 2.6374-0.92131 1.6856 1.0418 1.8599 29.954 0.21351 35.425-0.95651 3.1786-1.0399 3.1167-1.7966-1.3333zm347.09-2.3333c0.0631-3.0919 6.369-7 11.295-7 1.8433 0 3.3514 0.58857 3.3514 1.3079 0 1.5819-6.0085 3.2562-7.7726 2.1659-0.69164-0.42746-1.5696 0.41605-1.951 1.8745-0.64128 2.4522-4.9687 3.9042-4.9227 1.6517zm134.65 0.21373c0-1.3995 5.943-5.7904 7.8991-5.836 1.2994-0.0303 0.91016 1.0083-1.2324 3.289-2.8484 3.032-6.6667 4.4908-6.6667 2.5471zm-408-8.2727c0-0.70465 0.96921-2.0856 2.1538-3.0687 1.8634-1.5465 2.0881-1.4486 1.6667 0.72625-0.50219 2.5915-3.8205 4.626-3.8205 2.3424zm275.67-2.7296c-2.0154-1.2163-3.6654-2.9526-3.6667-3.8585-2e-3 -1.1026 1.43-0.77371 4.331 0.99502 2.3833 1.4532 5.3479 2.6443 6.588 2.6471 1.2401 3e-3 2.6255 0.60498 3.0787 1.3383 1.3257 2.145-6.2877 1.3182-10.331-1.1219zm141.66 1.0443c0-0.77602 2.6861-4.226 5.9691-7.6667 7.4028-7.7583 8.5082-4.3388 1.2091 3.7404-4.7998 5.3128-7.1782 6.6137-7.1782 3.9262zm-408-5.2088c0-1.5102 4.3872-4.0599 6.9123-4.0173 0.96488 0.0163 0.25433 1.203-1.579 2.637-3.6993 2.8936-5.3333 3.3165-5.3333 1.3802zm22.667-1.3802c0-0.73333 0.9-1.3333 2-1.3333s2 0.6 2 1.3333-0.9 1.3333-2 1.3333-2-0.6-2-1.3333zm326.67-6.0787c0-3.7129 0.51892-5.758 1.3333-5.2546 0.73333 0.45323 1.3333 3.1886 1.3333 6.0787 0 2.8901-0.6 5.2546-1.3333 5.2546-0.73334 0-1.3333-2.7354-1.3333-6.0787zm-99.53 1.2982c-2.8905-4.4115-0.96491-5.8358 6.7004-4.956l5.4968 0.63094-4-2.1972c-5.7162-3.14-7.0259-4.6997-3.9333-4.6844 2.17 0.0108 8.4838 4.1534 16.21 10.636 0.88572 0.74311 3.1357 1.3511 5 1.3511 1.8643 0 3.3896 0.6 3.3896 1.3333 0 1.7354-5.7377 1.729-7.475-8e-3 -1.8147-1.8147-13.932-4.8459-16.959-4.2425-2.3115 0.46074-2.3179 0.6134-0.12668 3.0347 2.0853 2.3042 2.0979 2.5495 0.13137 2.5495-1.1968 0-3.1923-1.5512-4.4346-3.4471zm-234.14 1.1947c-2.4051-0.62851-3.2879-3.0809-1.109-3.0809 2.3071 0 5.4424 1.6184 5.4424 2.8093 0 1.2445-0.49236 1.2753-4.3333 0.27158zm14.296-5.4068c0.91059-3.6281 3.3441-7.4785 4.1912-6.6314 0.24229 0.24229-0.17141 2.6568-0.91934 5.3656-1.5801 5.7227-4.6927 6.9269-3.2719 1.2658zm199.37-2.2297c0-1.0389 0.53231-2.0889 1.1829-2.3333 0.65061-0.24444 2.0006-4.1577 3-8.6962s2.4171-8.2618 3.1504-8.2741c1.8019-0.0302 0.8636 7.6108-1.4946 12.171-1.0489 2.0284-1.5706 3.6881-1.1594 3.6881s0.10559 1.2-0.67934 2.6667c-1.6501 3.0833-4 3.5402-4 0.77778zm130.67-0.0243c0-2.9682 2.6474-9.2172 3.5307-8.3339 1.1949 1.1949-0.79959 10.247-2.2578 10.247-0.70011 0-1.2729-0.86094-1.2729-1.9132zm62.667 0.65422c0-0.69244 1.481-2.9424 3.2912-5 3.7474-4.2596 4.7721-1.6617 1.2999 3.2956-2.1272 3.0369-4.5911 3.9516-4.5911 1.7044zm-498.67-0.67513c0-0.42513 1.8812-4.1063 4.1805-8.1804l4.1805-7.4074-5.1805 0.88247c-2.8493 0.48536-12.57 2.3643-21.602 4.1755-16.52 3.3129-21.84 3.5926-21.501 1.1306 0.22688-1.6465 9.283-3.8182 35.621-8.5421 20.906-3.7496 24.188-3.5226 22.245 1.5388-0.80055 2.0862-17.945 17.757-17.945 16.402zm315.33-6.0659c-0.48207-0.77999 0.90127-1.3333 3.3333-1.3333s3.8154 0.55334 3.3333 1.3333c-0.45323 0.73334-1.9532 1.3333-3.3333 1.3333s-2.8801-0.6-3.3333-1.3333zm110 0.36596c0-0.65429 0.91764-2.3543 2.0392-3.7778 1.9748-2.5064 2.0274-2.4861 1.6667 0.64072-0.34376 2.9795-3.7059 5.8255-3.7059 3.1371zm-311.95-4.0795c-0.06236-2.2286 3.9137-8.2864 5.4387-8.2864 1.9659 0 1.3335 1.7966-2.112 6-1.8033 2.2-3.3003 3.2289-3.3267 2.2864zm327.54 0.1858c-1.6803-1.6803-0.9441-7.2121 1.0623-7.982 1.0884-0.41768 4.6342-4.4804 7.8795-9.0282 6.8305-9.5721 10.141-12.82 10.141-9.9491 0 1.0117-2.6976 5.128-5.9947 9.1473s-6.7846 9.6776-7.75 12.574c-1.7383 5.215-3.5673 7.0095-5.3386 5.2382zm64.417-0.93993c0-2.6812 3.3463-8.8656 4.7971-8.8656 1.0283 0 1.8696 0.3298 1.8696 0.73288 0 1.8562-4.2091 8.6004-5.3676 8.6004-0.7145 0-1.2991-0.21046-1.2991-0.4677zm-73.333-8.7913c0-0.69244 1.4432-2.9368 3.2072-4.9875 3.1555-3.6685 3.2516-3.6883 5.9686-1.2295 3.1206 2.8242 2.387 5.8795-0.78057 3.2506-1.6878-1.4008-2.4417-1.1848-4.4284 1.2686-2.5481 3.1468-3.9668 3.754-3.9668 1.6978zm-403.33-12.257c-21.844-16.426-47.606-34.615-54.689-38.612-4.0212-2.2694-7.3114-5.0332-7.3114-6.1416 0-5.2283 14.428 4.3501 59.092 39.229 7.7184 6.0275 14.416 11.578 14.883 12.333 1.7959 2.9059-1.6975 0.91956-11.975-6.8086zm96.172 7.1285c-0.9668-1.5643 2.8352-5.0492 4.1138-3.7706 0.48862 0.48863-0.0549 1.8317-1.2078 2.9846-1.2469 1.2469-2.4243 1.5654-2.906 0.78599zm183.31-7.7605c-4.3568-8.0439-4.4062-11.452-0.0846-5.8319 2.8154 3.6614 5.9085 11.786 4.8791 12.815-0.36108 0.36109-2.5186-2.7814-4.7944-6.9833zm203.85 2.9722c0-1.8333 0.6-3.7042 1.3333-4.1574 0.75308-0.46543 1.3333 0.62659 1.3333 2.5093 0 1.8333-0.6 3.7042-1.3333 4.1574-0.75307 0.46543-1.3333-0.62659-1.3333-2.5093zm-377.33-3.0104c0-1.4129 4.526-4.3956 6.6667-4.3936 1.3896 1e-3 1.0393 0.80232-1.1477 2.6243-3.1438 2.6191-5.519 3.3805-5.519 1.7693zm378.11-4.3014c-0.57436-0.92934-0.68422-2.0498-0.24412-2.4899 1.1933-1.1933 2.4944 0.56173 1.8498 2.4952-0.45163 1.3549-0.76569 1.3538-1.6057-5e-3zm-362.78-2.8456c0.45323-0.73333 2.024-1.3333 3.4907-1.3333 1.4667 0 2.2958 0.6 1.8426 1.3333-0.45322 0.73333-2.024 1.3333-3.4907 1.3333-1.4667 0-2.2958-0.6-1.8426-1.3333zm8.6667-1.3333c0-0.73334 1.2354-1.3333 2.7454-1.3333 1.51 0 2.3745 0.6 1.9213 1.3333-0.45322 0.73333-1.6886 1.3333-2.7454 1.3333s-1.9213-0.6-1.9213-1.3333zm101.33-1.2577c0-1.7126 5.4509-5.4105 7.9634-5.4023 1.2982 4e-3 0.58634 1.1954-1.9634 3.2854-4.2927 3.5187-6 4.1211-6 2.1169zm206.67 3e-3c0-0.69005 0.6-1.6255 1.3333-2.0787 0.73333-0.45322 1.3333 0.11137 1.3333 1.2546s-0.6 2.0787-1.3333 2.0787-1.3333-0.56459-1.3333-1.2546zm46.271 0.41422c-0.51554-0.51554-0.93735-2.4401-0.93735-4.2768s-0.99632-4.4404-2.214-5.786c-1.2177-1.3456-1.9036-2.7569-1.5242-3.1364 1.1883-1.1883 4.308 0.68698 6.7889 4.0808 2.0718 2.8342 2.1509 3.7062 0.60402 6.6585-0.97898 1.8684-2.2018 2.9754-2.7173 2.4598zm-218.6-2.5889c-3.2054-1.739-5.023-4.5707-2.9338-4.5707 2.2484 0 8.5657 4.3109 7.8987 5.3901-0.94689 1.5321-0.49197 1.6072-4.9649-0.81941zm-42.067-0.83737c-2.6731-2.6731-1.7956-3.7653 1.7333-2.1574 1.8333 0.83532 3.3333 2.0224 3.3333 2.6381 0 1.6616-3.2309 1.3551-5.0667-0.48069zm-86.933-2.291c0-1.4067-0.36419-3.5067-0.80931-4.6667-0.44513-1.1599-0.20382-2.109 0.53623-2.109s2.0042 1.8895 2.8093 4.199c1.8383 5.2734 1.8528 5.1344-0.53624 5.1344-1.1 0-2-1.1509-2-2.5576zm5.3333-0.10905c0-0.73333 0.6-1.3333 1.3333-1.3333s1.3333 0.6 1.3333 1.3333-0.6 1.3333-1.3333 1.3333-1.3333-0.6-1.3333-1.3333zm102.67-1.4657c0-1.6595 5.2689-2.8396 8.7629-1.9626 5.2509 1.3179 3.7082 2.9839-2.7629 2.9839-3.3 0-6-0.45957-6-1.0213zm-98.667-0.55389c0-1.2733 8.6468-5.9704 11-5.9754 4.1698-9e-3 2.4685 2.2478-3.3779 4.4805-6.0287 2.3024-7.6221 2.6149-7.6221 1.4949zm66-0.72072c-1.4667-0.58974-4.1667-1.1236-6-1.1864-3.8602-0.13217-7.6573-2.1938-6.3846-3.4665 1.2794-1.2794 11.076 0.62968 13.926 2.714 3.0198 2.2081 2.077 3.3939-1.5416 1.9389zm-71.333-3.8477c0-1.5099 0.6-2.7454 1.3333-2.7454 0.73333 0 1.3333 0.86459 1.3333 1.9213s-0.6 2.2921-1.3333 2.7454c-0.73334 0.45323-1.3333-0.41136-1.3333-1.9213zm309.26 0.0651c1.7445-3.2596 9.5199-9.812 10.491-8.8408 0.85936 0.85936-9.0607 11.364-10.732 11.364-0.61031 0-0.50206-1.1353 0.24054-2.5228zm-286.59-1.4772c0-0.73333 3.3-1.3333 7.3333-1.3333 4.0333 0 7.3333 0.6 7.3333 1.3333s-3.3 1.3333-7.3333 1.3333c-4.0333 0-7.3333-0.6-7.3333-1.3333zm20-2c0-2.0934 2.3178-2.5618 5.891-1.1907 3.4823 1.3363 2.3833 3.1907-1.891 3.1907-2.6667 0-4-0.66667-4-2zm284 0.66667c0-0.73334 0.63541-1.3333 1.412-1.3333 0.77662 0 1.0412 0.6 0.58798 1.3333-0.45322 0.73333-1.0886 1.3333-1.412 1.3333s-0.58798-0.6-0.58798-1.3333zm3.9792-2.025c-1.3743-1.6559-1.253-2.4975 0.66512-4.617 1.2902-1.4256 1.9918-3.5143 1.5592-4.6417s-0.27534-2.0497 0.34945-2.0497c1.7724 0 2.8187 5.6805 1.3682 7.4283-0.7153 0.86188-0.926 2.5431-0.46822 3.736 1.0496 2.7352-1.2443 2.8303-3.4737 0.14399zm-330.41-7.2055c0.23561-2.5102 1.2046-4.8189 2.1532-5.1305 1.2698-0.41706 1.4882 0.43525 0.82786 3.2307-1.39 5.8845-3.4801 7.2165-2.9811 1.8998zm322.43 0.2109c0-1.7304 3.0015-4.3136 5.012-4.3136 0.99662 0 1.4432 0.59677 0.99241 1.3262-1.1793 1.9081-6.0044 4.3088-6.0044 2.9874zm-327.98-3.3136c0.0112-1.65 0.60204-3.9 1.3129-5 0.96141-1.4877 1.2977-0.71918 1.3129 3 0.0112 2.75-0.57958 5-1.3129 5-0.73333 0-1.3241-1.35-1.3129-3zm8.6995-8c0.49478-1.65 1.7352-3.8786 2.7565-4.9524 1.6192-1.7024 1.8515-1.6171 1.8145 0.66667-0.044 2.7191-2.882 7.2857-4.5278 7.2857-0.51857 0-0.53803-1.35-0.0432-3zm-0.0459-13.008c2.6528-2.9314 4.1074-2.618 2.8658 0.61734-0.43425 1.1316-1.8014 2.0575-3.038 2.0575-2.0519 0-2.0368-0.2339 0.17221-2.6748zm7.3259-0.29409c0-2.4306 2.3638-4.4451 3.676-3.1328 0.45756 0.45756-0.18236 1.8462-1.422 3.0859-2.0786 2.0786-2.254 2.0822-2.254 0.04694zm7.3333-7.6977c0.45323-0.73333 1.3886-1.3333 2.0787-1.3333 0.69006 0 1.2546 0.6 1.2546 1.3333 0 0.73333-0.93541 1.3333-2.0787 1.3333s-1.7079-0.6-1.2546-1.3333z"/>
</svg>
