<svg width="24" height="24" viewBox="0 0 24 24" xmlns="http://www.w3.org/2000/svg">
	<path fill-rule="evenodd" clip-rule="evenodd" d="M12 2C17.52 2 22 6.48 22 12C22 17.52 17.52 22 12 22C6.48 22 2 17.52 2 12C2 6.48 6.48 2 12 2ZM9.70703 8.29297C9.31651 7.90244 8.68349 7.90244 8.29297 8.29297L5.29297 11.293C4.90244 11.6835 4.90244 12.3165 5.29297 12.707L8.29297 15.707L8.36914 15.7754C8.76191 16.0957 9.34092 16.0731 9.70703 15.707C10.0731 15.3409 10.0957 14.7619 9.77539 14.3691L9.70703 14.293L7.41406 12L9.70703 9.70703C10.0976 9.31651 10.0976 8.68349 9.70703 8.29297ZM15.707 8.29297C15.3165 7.90244 14.6835 7.90244 14.293 8.29297C13.9024 8.68349 13.9024 9.31651 14.293 9.70703L16.5859 12L14.293 14.293L14.2246 14.3691C13.9043 14.7619 13.9269 15.3409 14.293 15.707C14.6591 16.0731 15.2381 16.0957 15.6309 15.7754L15.707 15.707L18.707 12.707C19.0976 12.3165 19.0976 11.6835 18.707 11.293L15.707 8.29297Z" />
</svg>
