<svg width="24" height="24" viewBox="0 0 24 24" xmlns="http://www.w3.org/2000/svg">
	<path d="M15.1466 11C15.2763 11.0775 15.4007 11.1575 15.5176 11.2432C16.4216 11.9059 16.9034 12.8086 16.9034 13.9648C16.9034 16.3831 14.4789 18.0349 11.9532 18.0352C9.70898 18.0352 8.17011 16.9123 7.37214 15.666L7.22272 15.415L7.1778 15.3232C6.97771 14.8576 7.15881 14.3071 7.61139 14.0557C8.06409 13.8043 8.6275 13.9413 8.91706 14.3574L8.97077 14.4443L9.05671 14.5879C9.51642 15.3073 10.4476 16.0352 11.9532 16.0352C13.8453 16.035 14.9034 14.8601 14.9034 13.9648C14.9034 13.4643 14.7403 13.1536 14.335 12.8564C13.8512 12.5018 13.0315 12.1844 11.7178 11.8672C10.7814 11.6411 9.98041 11.3631 9.32819 11H15.1466Z" />
	<path d="M11.9522 3.95996C14.0134 3.95996 15.8857 4.97994 16.6514 6.86816C16.8588 7.37992 16.6124 7.9624 16.1007 8.16992C15.5889 8.37742 15.0055 8.13092 14.7979 7.61914C14.399 6.63601 13.3741 5.95996 11.9522 5.95996C10.1233 5.96015 9.35944 7.00621 9.35944 7.7959C9.35944 8.30243 9.50008 8.63025 9.82526 8.92188C9.85479 8.94836 9.88743 8.97343 9.92096 9H7.54596C7.4179 8.61959 7.35944 8.21616 7.35944 7.7959C7.35944 5.5858 9.36348 3.96016 11.9522 3.95996Z" />
	<path d="M18 10L18.1025 10.0049C18.6067 10.0562 19 10.4823 19 11C19 11.5177 18.6067 11.9438 18.1025 11.9951L18 12H6C5.44772 12 5 11.5523 5 11C5 10.4477 5.44772 10 6 10H18Z" />
</svg>
