<svg width="24" height="24" viewBox="0 0 24 24" xmlns="http://www.w3.org/2000/svg">
	<path d="M18 18C18.5523 18 19 18.4477 19 19C19 19.5523 18.5523 20 18 20H6C5.44772 20 5 19.5523 5 19C5 18.4477 5.44772 18 6 18H18ZM7 5C7 4.44772 7.44772 4 8 4C8.55228 4 9 4.44772 9 5V11.0117C9.00058 11.0292 9.00195 11.0595 9.00488 11.1006C9.0108 11.1834 9.02343 11.3086 9.04883 11.4609C9.10043 11.7704 9.20195 12.1676 9.39453 12.5527C9.58522 12.9341 9.85543 13.2851 10.2422 13.543C10.6227 13.7966 11.175 14 12 14C12.825 14 13.3773 13.7966 13.7578 13.543C14.1446 13.2851 14.4148 12.9341 14.6055 12.5527C14.798 12.1676 14.8996 11.7704 14.9512 11.4609C14.9766 11.3086 14.9892 11.1834 14.9951 11.1006C14.9981 11.0595 14.9994 11.0292 15 11.0117V5C15 4.44773 15.4477 4.00002 16 4C16.5523 4 17 4.44772 17 5V11H16C16.976 11 16.9994 11.0005 17 11.001V11.0273C16.9998 11.0404 16.9987 11.0576 16.998 11.0781C16.9967 11.1192 16.9941 11.175 16.9893 11.2432C16.9795 11.3791 16.9609 11.5666 16.9238 11.7891C16.8504 12.2296 16.7019 12.8326 16.3945 13.4473C16.0852 14.0659 15.6054 14.7149 14.8672 15.207C14.1227 15.7034 13.175 16 12 16C10.825 16 9.87731 15.7034 9.13281 15.207C8.39458 14.7149 7.91478 14.0659 7.60547 13.4473C7.29811 12.8326 7.14959 12.2296 7.07617 11.7891C7.03911 11.5666 7.02045 11.3791 7.01074 11.2432C7.00587 11.175 7.00332 11.1192 7.00195 11.0781C7.00127 11.0576 7.00021 11.0404 7 11.0273V11.001L8 11H7V5Z" />
</svg>

