<svg width="24" height="24" viewBox="0 0 24 24" xmlns="http://www.w3.org/2000/svg">
	<path d="M14.5 4.99992C15.0519 4.99992 15.4995 5.44707 15.5 5.99895L15.501 8.12102L17.5205 7.46672L17.6191 7.44035C18.1143 7.33363 18.6193 7.61723 18.7793 8.1093C18.9498 8.6342 18.6633 9.198 18.1387 9.36907H18.1357L18.1367 9.37004L17.9707 9.42375L16.1191 10.0263L17.0918 11.3661L17.3662 11.7431L17.4229 11.83C17.6772 12.2679 17.5639 12.8363 17.1455 13.1405C16.699 13.465 16.0738 13.366 15.749 12.9198L14.5 11.203L13.251 12.9198C12.9262 13.366 12.301 13.465 11.8545 13.1405C11.4081 12.816 11.3096 12.1908 11.6338 11.7441L12.8799 10.0263L11.0293 9.42375L10.8633 9.37004L10.8643 9.36907H10.8613C10.3367 9.198 10.0502 8.6342 10.2207 8.1093C10.3913 7.5845 10.9545 7.2967 11.4795 7.46672L13.498 8.12102L13.5 5.99895L13.5049 5.89739C13.5562 5.39322 13.9824 4.99992 14.5 4.99992Z" />
	<path d="M10 15.9999C10 17.1045 9.10457 17.9999 8 17.9999C6.89543 17.9999 6 17.1045 6 15.9999C6 14.8954 6.89543 13.9999 8 13.9999C9.10457 13.9999 10 14.8954 10 15.9999Z" />
	<path d="M0 11.4999C0 9.09637 0.534894 7.32635 1.09473 6.13664C1.37371 5.54381 1.65748 5.09932 1.87891 4.79485C1.98947 4.64283 2.08458 4.52551 2.15625 4.44231C2.19197 4.40085 2.22208 4.36747 2.24512 4.3427C2.25658 4.33037 2.26648 4.31968 2.27441 4.31145C2.27835 4.30736 2.28214 4.30378 2.28516 4.30071C2.28668 4.29916 2.28778 4.29711 2.28906 4.29582L2.29102 4.29485L2.29199 4.29387C2.29238 4.29348 2.29286 4.29285 2.9043 4.90422L2.29297 4.29289C2.68349 3.90237 3.31651 3.90237 3.70703 4.29289C4.09723 4.68309 4.09756 5.31538 3.70801 5.70598L3.70996 5.70403C3.71068 5.7033 3.7114 5.7026 3.71191 5.70207L3.70996 5.70403C3.70373 5.71073 3.69047 5.72542 3.67188 5.74699C3.63421 5.79071 3.57286 5.86509 3.49609 5.97063C3.34255 6.18175 3.12622 6.51872 2.90527 6.98821C2.46514 7.92349 2 9.40361 2 11.4999C2 13.5962 2.46514 15.0764 2.90527 16.0116C3.12622 16.4811 3.34255 16.8181 3.49609 17.0292C3.57286 17.1348 3.63421 17.2091 3.67188 17.2529C3.69047 17.2744 3.70373 17.2881 3.70996 17.2948C3.71294 17.298 3.71409 17.3 3.71387 17.2997L3.70996 17.2948L3.70898 17.2939C4.09853 17.6845 4.09723 18.3168 3.70703 18.707C3.31651 19.0975 2.68349 19.0975 2.29297 18.707L3 17.9999C2.29289 18.707 2.2924 18.7064 2.29199 18.706L2.29102 18.705L2.28906 18.704C2.28778 18.7027 2.28668 18.7007 2.28516 18.6991C2.28214 18.6961 2.27835 18.6925 2.27441 18.6884C2.26648 18.6802 2.25658 18.6695 2.24512 18.6572C2.22208 18.6324 2.19197 18.599 2.15625 18.5575C2.08458 18.4743 1.98947 18.357 1.87891 18.205C1.65748 17.9005 1.37371 17.456 1.09473 16.8632C0.534894 15.6735 0 13.9035 0 11.4999Z" />
	<path d="M24 11.4999C24 9.09637 23.4651 7.32635 22.9053 6.13664C22.6263 5.54381 22.3425 5.09932 22.1211 4.79485C22.0105 4.64283 21.9154 4.52551 21.8438 4.44231C21.808 4.40085 21.7779 4.36747 21.7549 4.3427C21.7434 4.33037 21.7335 4.31968 21.7256 4.31145C21.7216 4.30736 21.7179 4.30378 21.7148 4.30071C21.7133 4.29916 21.7122 4.29711 21.7109 4.29582L21.709 4.29485L21.708 4.29387C21.7076 4.29348 21.7071 4.29285 21.0957 4.90422L21.707 4.29289C21.3165 3.90237 20.6835 3.90237 20.293 4.29289C19.9028 4.68309 19.9024 5.31538 20.292 5.70598L20.29 5.70403C20.2893 5.7033 20.2886 5.7026 20.2881 5.70207L20.29 5.70403C20.2963 5.71073 20.3095 5.72542 20.3281 5.74699C20.3658 5.79071 20.4271 5.86509 20.5039 5.97063C20.6574 6.18175 20.8738 6.51872 21.0947 6.98821C21.5349 7.92349 22 9.40361 22 11.4999C22 13.5962 21.5349 15.0764 21.0947 16.0116C20.8738 16.4811 20.6574 16.8181 20.5039 17.0292C20.4271 17.1348 20.3658 17.2091 20.3281 17.2529C20.3095 17.2744 20.2963 17.2881 20.29 17.2948C20.2871 17.298 20.2859 17.3 20.2861 17.2997L20.29 17.2948L20.291 17.2939C19.9015 17.6845 19.9028 18.3168 20.293 18.707C20.6835 19.0975 21.3165 19.0975 21.707 18.707L21 17.9999C21.7071 18.707 21.7076 18.7064 21.708 18.706L21.709 18.705L21.7109 18.704C21.7122 18.7027 21.7133 18.7007 21.7148 18.6991C21.7179 18.6961 21.7216 18.6925 21.7256 18.6884C21.7335 18.6802 21.7434 18.6695 21.7549 18.6572C21.7779 18.6324 21.808 18.599 21.8438 18.5575C21.9154 18.4743 22.0105 18.357 22.1211 18.205C22.3425 17.9005 22.6263 17.456 22.9053 16.8632C23.4651 15.6735 24 13.9035 24 11.4999Z" />
</svg>
