<svg width="24" height="24" viewBox="0 0 24 24" xmlns="http://www.w3.org/2000/svg">
	<path d="M17.6569 6.34308L18.9226 5.07736C19.2408 4.75916 19.7782 4.98544 19.7711 5.43091L19.7782 9.38364C19.7782 9.66648 19.559 9.88569 19.2761 9.88569L15.3305 9.88569C14.885 9.87862 14.6587 9.34121 14.9769 9.02302L16.2426 7.7573C13.9021 5.41677 10.0979 5.41677 7.75736 7.7573C7.19875 8.31591 6.76034 8.96645 6.4775 9.65941C6.329 10.02 5.96131 10.2322 5.57947 10.2322C4.85822 10.2322 4.37739 9.49678 4.66023 8.8321C5.04207 7.927 5.60776 7.07847 6.34315 6.34308C9.46856 3.21767 14.5314 3.21767 17.6569 6.34308ZM7.75736 16.2426C10.0979 18.5831 13.9021 18.5831 16.2426 16.2426C16.8013 15.684 17.2397 15.0334 17.5225 14.3405C17.671 13.9798 18.0387 13.7677 18.4205 13.7677C19.1418 13.7677 19.6226 14.5031 19.3398 15.1678C18.9579 16.0729 18.3922 16.9214 17.6569 17.6568C14.5314 20.7822 9.46856 20.7822 6.34315 17.6568L5.07742 18.9225C4.75923 19.2407 4.22183 19.0144 4.2289 18.569L4.2289 14.6233C4.2289 14.3405 4.4481 14.1213 4.73094 14.1213L8.6766 14.1213C9.115 14.1213 9.34128 14.6587 9.02308 14.9769L7.75736 16.2426Z" />
</svg>
